<?xml version="1.0" encoding="utf-8"?>
<!-- Generator: Adobe Illustrator 21.0.2, SVG Export Plug-In . SVG Version: 6.00 Build 0)  -->
<svg version="1.1"
	 id="svg2" inkscape:version="0.48.5 r10040" sodipodi:docname="Google logo white 2015.svg" xmlns:cc="http://creativecommons.org/ns#" xmlns:dc="http://purl.org/dc/elements/1.1/" xmlns:inkscape="http://www.inkscape.org/namespaces/inkscape" xmlns:rdf="http://www.w3.org/1999/02/22-rdf-syntax-ns#" xmlns:sodipodi="http://sodipodi.sourceforge.net/DTD/sodipodi-0.dtd" xmlns:svg="http://www.w3.org/2000/svg"
	 xmlns="http://www.w3.org/2000/svg" xmlns:xlink="http://www.w3.org/1999/xlink" x="0px" y="0px" viewBox="0 0 1000 328.6"
	 style="enable-background:new 0 0 1000 328.6;" xml:space="preserve">
<style type="text/css">
	.st0{fill:#FFFFFF;}
</style>
<sodipodi:namedview  bordercolor="#666666" borderopacity="1.0" fit-margin-bottom="0.5" fit-margin-left="0.5" fit-margin-right="0.5" fit-margin-top="0.5" id="base" inkscape:current-layer="layer1" inkscape:cx="1107.0619" inkscape:cy="38.466931" inkscape:document-units="px" inkscape:pageopacity="0.0" inkscape:pageshadow="2" inkscape:window-height="706" inkscape:window-maximized="1" inkscape:window-width="1366" inkscape:window-x="-8" inkscape:window-y="-8" inkscape:zoom="0.2840332" pagecolor="#ffffff" showgrid="false">
	
		<inkscape:grid  empspacing="5" enabled="true" id="grid2996" originx="-39.48794px" originy="-160.23718px" snapvisiblegridlinesonly="true" type="xygrid" visible="true">
		</inkscape:grid>
</sodipodi:namedview>
<g id="layer1" transform="translate(-39.48794,-563.5689)" inkscape:groupmode="layer" inkscape:label="Layer 1">
	<g id="g3435">
		<path id="path2998" inkscape:connector-curvature="0" sodipodi:nodetypes="cccccccccccccc" class="st0" d="M285.6,679.7H169v34.6
			h82.7c-4.1,48.5-44.4,69.2-82.5,69.2c-48.7,0-91.3-38.3-91.3-92.1c0-52.4,40.5-92.7,91.4-92.7c39.2,0,62.3,25,62.3,25l24.2-25.1
			c0,0-31.1-34.6-87.8-34.6c-72.2,0-128,60.9-128,126.8c0,64.5,52.5,127.4,129.9,127.4c68,0,117.8-46.6,117.8-115.5
			C287.7,688.1,285.6,679.7,285.6,679.7L285.6,679.7z"/>
		<path id="path3000" inkscape:connector-curvature="0" class="st0" d="M381.1,654.7c-47.8,0-82.1,37.4-82.1,81
			c0,44.3,33.2,82.3,82.7,82.3c44.7,0,81.4-34.2,81.4-81.4C463,682.6,420.4,654.7,381.1,654.7L381.1,654.7z M381.6,686.8
			c23.5,0,45.8,19,45.8,49.7c0,30-22.2,49.6-45.9,49.6c-26.1,0-46.6-20.9-46.6-49.8C334.8,707.9,355.1,686.8,381.6,686.8
			L381.6,686.8z"/>
		<path id="path3005" inkscape:connector-curvature="0" class="st0" d="M559.7,654.7c-47.8,0-82.1,37.4-82.1,81
			c0,44.3,33.2,82.3,82.7,82.3c44.7,0,81.4-34.2,81.4-81.4C641.6,682.6,599,654.7,559.7,654.7L559.7,654.7z M560.1,686.8
			c23.5,0,45.8,19,45.8,49.7c0,30-22.2,49.6-45.9,49.6c-26.1,0-46.6-20.9-46.6-49.8C513.4,707.9,533.7,686.8,560.1,686.8
			L560.1,686.8z"/>
		<path id="path3007" inkscape:connector-curvature="0" class="st0" d="M734.8,654.8c-43.9,0-78.4,38.5-78.4,81.6
			c0,49.2,40,81.8,77.7,81.8c23.3,0,35.7-9.2,44.8-19.8v16.1c0,28.2-17.1,45.1-42.9,45.1c-24.9,0-37.5-18.6-41.8-29.1l-31.4,13.1
			c11.1,23.5,33.6,48.1,73.5,48.1c43.7,0,76.9-27.5,76.9-85.2V659.7h-34.2v13.8C768.3,662.2,753.9,654.8,734.8,654.8z M738,686.8
			c21.5,0,43.6,18.4,43.6,49.8c0,31.9-22.1,49.5-44.1,49.5c-23.4,0-45.2-19-45.2-49.2C692.3,705.5,715,686.8,738,686.8L738,686.8z"
			/>
		<path id="path3011" inkscape:connector-curvature="0" class="st0" d="M965.4,654.6c-41.4,0-76.2,32.9-76.2,81.6
			c0,51.4,38.8,82,80.2,82c34.6,0,55.8-18.9,68.4-35.8l-28.2-18.8c-7.3,11.4-19.6,22.5-40,22.5c-23,0-33.5-12.6-40.1-24.8
			l109.5-45.4l-5.7-13.3C1022.7,676.4,998,654.6,965.4,654.6L965.4,654.6z M966.8,686c14.9,0,25.7,7.9,30.2,17.4L923.9,734
			C920.7,710.4,943.2,686,966.8,686z"/>
		<path id="path3015" inkscape:connector-curvature="0" class="st0" d="M837,813.3h36V572.5h-36V813.3z"/>
	</g>
</g>
</svg>
