<?xml version="1.0" encoding="utf-8"?>
<!-- Generator: Adobe Illustrator 21.0.2, SVG Export Plug-In . SVG Version: 6.00 Build 0)  -->
<svg version="1.1" id="Layer_1" xmlns="http://www.w3.org/2000/svg" xmlns:xlink="http://www.w3.org/1999/xlink" x="0px" y="0px"
	 viewBox="0 0 640 280" style="enable-background:new 0 0 640 280;" xml:space="preserve">
<style type="text/css">
	.st0{fill:#FFFFFF;}
</style>
<g>
	<path class="st0" d="M639.7,279.4H0.1V0.5h639.6V279.4z M9.1,270.5h621.6V9.5H9.1V270.5z"/>
	<path class="st0" d="M91.3,184.4h-1.9c-12.6,0-29-7.2-34.6-17.6c-1.5-2.4,3-4,4.3-1.6c4.9,9,19.4,15.5,30.3,15.5h1.9
		c16,0,29.7-6.5,29.7-20.3c0-15.6-15.8-19.4-31.4-21.9c-12.2-2-31.4-6.5-31.4-20.1v-1.6c0-14.7,16.3-21,31-21h1.3
		c13,0,22,4.8,28.6,9.7c2.4,1.8-0.6,4.7-3,2.9c-6.4-4.7-14.5-8.9-25.6-8.9h-1.3c-12.2,0-26.7,4.9-26.7,17.3v1.6
		c0,9.5,14.7,14.4,27.7,16.7c17.7,3.1,35.2,6.6,35.2,25.4C125.4,177.3,108.1,184.4,91.3,184.4z"/>
	<path class="st0" d="M91.3,186.2h-1.9c-12.6,0-30.1-7.1-36.2-18.6c-0.7-1-0.7-2.2-0.1-3.3c0.7-1.2,2.2-2.1,3.9-2.1
		c1.6,0,3,0.8,3.7,2c4.7,8.6,18.9,14.5,28.7,14.5h1.9c13.4,0,27.9-4.9,27.9-18.5c0-14.2-14.8-17.7-29.9-20.2
		c-8.1-1.3-32.9-5.4-32.9-21.9v-1.6c0-15.7,17-22.8,32.7-22.8h1.3c14.3,0,23.8,5.8,29.6,10.1c1.4,1,1.9,2.6,1.4,4
		c-0.8,2.4-4.3,3.4-6.6,1.7c-4.9-3.6-12.9-8.4-24.5-8.4h-1.3c-9.2,0-24.9,3.3-24.9,15.5v1.6c0,8.9,16.5,13.2,26.3,15
		c16.3,2.8,36.7,6.3,36.7,27.1C127.2,179.4,107.8,186.2,91.3,186.2z M56.9,165.8c-0.4,0-0.7,0.2-0.7,0.3
		c5.5,9.8,21.5,16.5,33.2,16.5h1.9c14.9,0,32.3-5.8,32.3-22.3c0-11.1-6.6-16.4-16.7-19.8c8.5,3.1,15.8,8.8,15.8,19.8
		c0,13.4-12.4,22.1-31.4,22.1h-1.9c-11.1,0-26.5-6.6-31.9-16.4C57.3,165.8,57.2,165.8,56.9,165.8z M89.1,97.3
		c-14.5,0-29.2,6-29.2,19.2v1.6c0,8.2,8,13.9,24.3,17.3c-15.5-3.6-23.6-9.6-23.6-17.3v-1.6c0-13.2,14.3-19.1,28.5-19.1h1.3
		c12.7,0,21.3,5.2,26.7,9.2c0.5,0.4,1,0.1,1,0c-5.6-4-14.5-9.4-27.7-9.4L89.1,97.3L89.1,97.3z"/>
	<path class="st0" d="M181.9,184.4h-2.4c-17.7,0-32-12-32-26.9v-34.9c0-14.9,14.3-27,32-27h2.4c17.5,0,32,12,32,27v34.9
		C213.9,172.3,199.6,184.4,181.9,184.4z M209.4,122.5c0-12.8-12.4-23.2-27.5-23.2h-2.4c-15.1,0-27.5,10.4-27.5,23.2v34.9
		c0,12.8,12.4,23.2,27.5,23.2h2.4c15.1,0,27.5-10.4,27.5-23.2L209.4,122.5L209.4,122.5z"/>
	<path class="st0" d="M181.9,186.2h-2.4c-18.6,0-33.8-12.9-33.8-28.8v-34.9c0-15.8,15.2-28.8,33.8-28.8h2.4
		c18.6,0,33.8,12.9,33.8,28.8v34.9C215.7,173.2,200.5,186.2,181.9,186.2z M179.5,97.3c-16.7,0-30.2,11.3-30.2,25.2v34.9
		c0,13.9,13.6,25.2,30.2,25.2h2.4c16.6,0,30.2-11.3,30.2-25.2v-34.9c0-13.9-13.6-25.2-30.2-25.2H179.5z M181.9,182.4h-2.4
		c-16.2,0-29.3-11.2-29.3-25v-34.9c0-13.8,13.1-25,29.3-25h2.4c16.1,0,29.3,11.2,29.3,25v34.9C211.2,171.2,198,182.4,181.9,182.4z
		 M179.5,101.1c-14.2,0-25.8,9.6-25.8,21.4v34.9c0,11.8,11.6,21.4,25.8,21.4h2.4c14.2,0,25.7-9.6,25.7-21.4v-34.9
		c0-11.8-11.5-21.4-25.7-21.4H179.5z"/>
	<path class="st0" d="M298.5,95.5c-1.1,0-2.1,0.7-2.1,2v11.1v12.3v37.8v2.7c-1.5,10.8-13.4,19.3-27.6,19.3h-2.4
		c-15.1,0-27.5-10.4-27.5-23.4V97.5c0-1.2-1.1-2-2.4-2c-1.1,0-2.1,0.7-2.1,2v59.7c0,15.1,14.3,27.2,32,27.2h2.4
		c11.6,0,23.4-5.3,27.6-12.8v23.6c0,12.8-12.4,23.2-27.5,23.2h-2.4c-13.4,0-26.3-6.1-29.7-15.4c-0.4-1.1-1.3-1.4-2.2-1.4
		c-1.1,0-2.3,0.7-2.3,1.8c0,0.3,0,0.5,0.2,0.7c4,11.5,19.4,18.2,33.9,18.2h2.4c17.7,0,32-12.1,32-27V97.5
		C300.8,96.2,299.6,95.5,298.5,95.5z"/>
	<path class="st0" d="M268.8,223.9h-2.4c-14.2,0-30.9-6.5-35.5-19c-0.4-0.6-0.4-1.2-0.4-1.6c0-2.2,2.2-3.6,4.1-3.6
		c1.8,0,3.2,1,3.8,2.6c3,8.3,14.8,14.3,28,14.3h2.4c14.2,0,25.8-9.6,25.8-21.4v-18.4c-5.8,5.7-15.7,9.4-25.8,9.4h-2.4
		c-18.7,0-33.8-13-33.8-29V97.5c0-2.1,1.7-3.8,3.9-3.8c2.4,0,4.1,1.6,4.1,3.8v59.7c0,11.9,11.5,21.6,25.8,21.6h2.4
		c13.1,0,24.4-7.8,25.8-17.7l0-2.5V97.5c0-2.1,1.7-3.8,3.9-3.8c2,0,4.1,1.4,4.1,3.8v97.7C302.6,211,287.5,223.9,268.8,223.9z
		 M234.2,203.4L234.2,203.4c3.9,11.2,19.2,17,32.2,17h2.4c16.7,0,30.2-11.3,30.2-25.2V97.5c0,0-0.3-0.2-0.6-0.2c0,0-0.3,0-0.3,0.2
		v63.8c-1.7,12.1-14.3,21.1-29.4,21.1h-2.4c-16.2,0-29.3-11.3-29.3-25.2V97.5c0-0.1-0.2-0.2-0.6-0.2c0,0-0.3,0-0.3,0.2v59.7
		c0,14,13.6,25.4,30.2,25.4h2.4c11,0,22.2-5.1,26-11.9l3.4-6.1v30.6c0,13.8-13.2,25-29.3,25h-2.4c-14.9,0-27.8-6.8-31.4-16.7
		C235,203.3,234.6,203.2,234.2,203.4z"/>
	<path class="st0" d="M354.4,184.4c-13.9,0-24.8-9.3-24.8-21V59.9c0-1.3,1.1-2,2.1-2c1.3,0,2.4,0.6,2.4,2v103.4
		c0,9.5,9,17.3,20.3,17.3c1.5,0,2.3,0.9,2.3,2C356.7,183.5,355.9,184.4,354.4,184.4z"/>
	<path class="st0" d="M354.4,186.2c-14.9,0-26.6-10-26.6-22.8V59.9c0-2.1,1.7-3.8,3.9-3.8c2.5,0,4.1,1.5,4.1,3.8v103.4
		c0,8.5,8.3,15.4,18.5,15.4c2.4,0,4.1,1.6,4.1,3.8C358.5,184.3,357.1,186.2,354.4,186.2z M331.8,59.7c0,0-0.3,0-0.3,0.2v103.4
		c0,10.8,10.1,19.2,23,19.2c0.4,0,0.6-0.1,0.6-0.1c0,0-0.4,0-0.6,0c-12.2,0-22.1-8.6-22.1-19.1V59.9
		C332.4,59.8,332.2,59.7,331.8,59.7z"/>
	<path class="st0" d="M434.5,141.6h-59.6v15.9c0,12.8,12.4,23.2,27.5,23.2h2.3c11.9,0,22.2-6.7,26-15.8c0.2-0.9,1.1-1.3,2-1.3
		c1.3,0,2.5,0.7,2.5,1.8c0,0.2-0.1,0.6-0.1,0.7c-4.3,10.6-16.3,18.3-30.4,18.3h-2.3c-17.7,0-32-12-32-26.9v-34.9
		c0-14.9,14.7-27,32.2-27h1.7c17.7,0,32.4,11.2,32.4,27v17.1C436.7,140.6,435.7,141.6,434.5,141.6z M432.2,122.5
		c0-12.8-12.3-23.2-27.5-23.2h-2.1c-15.1,0-27.7,10.4-27.7,23.2v15.3h57.4V122.5z"/>
	<path class="st0" d="M404.7,186.2h-2.3c-18.6,0-33.8-12.9-33.8-28.8v-34.9c0-15.8,15.3-28.8,34-28.8h1.7
		c19.5,0,34.2,12.4,34.2,28.8v17.1c0,2.1-1.9,3.8-4.1,3.8h-57.8v14.1c0,11.8,11.5,21.4,25.7,21.4h2.3c10.9,0,20.8-5.9,24.4-14.7
		c0.2-1.4,1.7-2.4,3.6-2.4c2.5,0,4.3,1.6,4.3,3.6c0,0.4-0.1,0.8-0.2,1l-0.1,0.4C432.1,178.4,419.2,186.2,404.7,186.2z M402.6,97.3
		c-16.8,0-30.4,11.3-30.4,25.2v34.9c0,13.9,13.6,25.2,30.2,25.2h2.3c12.9,0,24.4-6.8,28.6-17c0-0.1,0-0.1,0.1-0.2
		c-0.2,0-0.4-0.1-0.6-0.1c-4.5,10.3-15.6,17.1-28,17.1h-2.3c-16.2,0-29.3-11.2-29.3-25v-17.6h61.4c0.3,0,0.5-0.2,0.6-0.2l0-17.1
		c0-14.3-13.2-25.2-30.7-25.2L402.6,97.3L402.6,97.3z M434.1,139.6h-61v-17.1c0-13.8,13.3-25,29.5-25h2.1c16.2,0,29.4,11.2,29.4,25
		L434.1,139.6L434.1,139.6z M376.7,136h53.8v-13.5c0-11.8-11.6-21.4-25.8-21.4h-2.1c-14.3,0-25.9,9.6-25.9,21.4V136z"/>
	<path class="st0" d="M522.8,184.4c-1,0-2.1-0.7-2.1-1.9v-59.7c0-13-12.6-23.4-27.8-23.4h-2.1c-15.2,0-27.8,9.7-27.8,21.6v61.5
		c0,1.2-1,1.9-2.4,1.9c-1,0-2.1-0.7-2.1-1.9V97.5c0-1.2,1.1-1.8,2.1-1.8c1.3,0,2.4,0.5,2.4,1.8v11.1c4.1-7.7,16.1-13.1,27.8-13.1
		h2.1c17.7,0,32.3,12,32.3,27.2v59.7C525.1,183.6,523.9,184.4,522.8,184.4z"/>
	<path class="st0" d="M522.8,186.2c-2.2,0-3.9-1.7-3.9-3.8v-59.7c0-11.9-11.6-21.6-26-21.6h-2.1c-14.1,0-25.9,9-25.9,19.8v61.5
		c0,2.2-1.8,3.8-4.2,3.8c-2.2,0-3.9-1.7-3.9-3.8V97.5c0-2.1,1.6-3.6,3.9-3.6c2.5,0,4.2,1.4,4.2,3.6v5.8c5.7-5.8,15.7-9.6,25.9-9.6
		h2.1c18.8,0,34.1,13,34.1,29v59.7C527,184.7,524.8,186.2,522.8,186.2z M490.7,97.5h2.1c16.3,0,29.6,11.3,29.6,25.2v59.7
		c0,0.2,0.3,0.2,0.3,0.2c0.3,0,0.6-0.1,0.6-0.2l0-59.7c0-14-13.6-25.4-30.4-25.4h-2.1c-11.3,0-22.5,5.2-26.2,12.2l-3.3,6.5V97.5
		c0,0-0.3,0-0.6,0c-0.2,0-0.3,0.1-0.4,0.1l0.1,84.8c0,0.2,0.3,0.2,0.3,0.2c0.4,0,0.6-0.1,0.6-0.1l0-61.6
		C461.2,108,474.5,97.5,490.7,97.5z"/>
	<path class="st0" d="M558.4,163.3V99.6h-11.5c-3.2,0-3.2-3.8,0-3.8h11.5V59.7c0-2.5,4.5-2.5,4.5,0v36.2h19c3,0,3,3.8,0,3.8h-19
		v63.7c0,9.5,8.8,17.3,20.2,17.3c3,0,3,3.8,0,3.8C569,184.4,558.4,175,558.4,163.3z"/>
	<path class="st0" d="M583.1,186.2c-14.9,0-26.5-10-26.5-22.8v-61.9h-9.7c-2.7,0-4.2-1.9-4.2-3.7c0-1.8,1.5-3.7,4.2-3.7h9.7V59.7
		c0-2.1,1.8-3.7,4.1-3.7c2.2,0,4,1.6,4,3.7v34.4h17.2c2.7,0,4.1,1.9,4.1,3.7c0,1.8-1.4,3.7-4.1,3.7h-17.2v61.9
		c0,8.7,8.1,15.4,18.5,15.4c2.7,0,4.1,1.9,4.1,3.7C587.2,184.3,585.7,186.2,583.1,186.2z M546.3,97.8c0.1,0,0.2,0.1,0.6,0.1h13.3
		v65.5c0,10.8,10.1,19.2,23,19.2c0.3,0,0.5-0.1,0.5-0.1c0,0-0.2-0.1-0.5-0.1c-12.3,0-22-8.4-22-19.1V97.8h20.8
		c0.4,0,0.4-0.1,0.4-0.1s-0.1-0.1-0.4-0.1H561v-38c0,0-0.9,0-0.9,0l0,37.9h-13.3C546.4,97.7,546.3,97.7,546.3,97.8L546.3,97.8z"/>
</g>
</svg>
