<svg id="Layer_1" data-name="Layer 1" xmlns="http://www.w3.org/2000/svg" viewBox="0 0 426 539"><defs><style>.cls-1{fill:#fff;}</style></defs><title>Logo-White-Borderless</title><g id="Group"><g id="Vector_Stroke_" data-name="Vector (Stroke)"><path id="path2_fill" data-name="path2 fill" class="cls-1" d="M212.91,6.08C103.82,6.08,15.35,94.55,15.35,203.64H9.28C9.28,91.2,100.47,0,212.91,0Z"/></g><g id="Vector_Stroke_2" data-name="Vector (Stroke)"><path id="path3_fill" data-name="path3 fill" class="cls-1" d="M213.06,0C325.5,0,416.69,91.2,416.69,203.64h-6.07c0-109.09-88.47-197.56-197.56-197.56Z"/></g><g id="Vector_Stroke_3" data-name="Vector (Stroke)"><path id="path4_fill" data-name="path4 fill" class="cls-1" d="M15.35,203.64V516.83H9.28V203.64Z"/></g><g id="Vector_Stroke_4" data-name="Vector (Stroke)"><path id="path5_fill" data-name="path5 fill" class="cls-1" d="M416.56,203.64V441.26h-6.07V203.64Z"/></g><g id="Vector_Stroke_5" data-name="Vector (Stroke)"><path id="path6_fill" data-name="path6 fill" class="cls-1" d="M12.4,520.17a6.37,6.37,0,1,0,6.37,6.37A6.37,6.37,0,0,0,12.4,520.17ZM0,526.54A12.44,12.44,0,1,1,12.4,539,12.44,12.44,0,0,1,0,526.54Z"/></g><g id="Vector_Stroke_6" data-name="Vector (Stroke)"><path id="path7_fill" data-name="path7 fill" class="cls-1" d="M413.6,444.3a6.37,6.37,0,1,0,6.37,6.37A6.37,6.37,0,0,0,413.6,444.3Zm-12.44,6.37a12.44,12.44,0,1,1,12.44,12.44A12.44,12.44,0,0,1,401.16,450.67Z"/></g><g id="Vector_Stroke_7" data-name="Vector (Stroke)"><path id="path4_fill-2" data-name="path4 fill" class="cls-1" d="M40.55,203.64V516.83H34.48V203.64Z"/></g><g id="Vector_Stroke_8" data-name="Vector (Stroke)"><path id="path8_fill" data-name="path8 fill" class="cls-1" d="M37.59,520.17A6.37,6.37,0,1,0,44,526.54,6.37,6.37,0,0,0,37.59,520.17Zm-12.44,6.37A12.44,12.44,0,1,1,37.59,539,12.44,12.44,0,0,1,25.15,526.54Z"/></g><g id="Vector_Stroke_9" data-name="Vector (Stroke)"><path id="path9_fill" data-name="path9 fill" class="cls-1" d="M388.76,203.64V357.81h-6.07V203.64Z"/></g><g id="Vector_Stroke_10" data-name="Vector (Stroke)"><path id="path10_fill" data-name="path10 fill" class="cls-1" d="M385.61,360.84a6.37,6.37,0,1,0,6.37,6.37A6.37,6.37,0,0,0,385.61,360.84Zm-12.44,6.37a12.44,12.44,0,1,1,12.44,12.44A12.44,12.44,0,0,1,373.17,367.22Z"/></g><g id="Vector_Stroke_11" data-name="Vector (Stroke)"><path id="path11_fill" data-name="path11 fill" class="cls-1" d="M212.92,33.7c-95.47,0-172.37,76.06-172.37,169.95H34.48c0-97.31,79.69-176,178.44-176Z"/></g><g id="Vector_Stroke_12" data-name="Vector (Stroke)"><path id="path12_fill" data-name="path12 fill" class="cls-1" d="M213.06,27.63c97,0,175.71,78.75,175.71,176H382.7c0-93.92-76-169.95-169.64-169.95Z"/></g><g id="Vector_Stroke_13" data-name="Vector (Stroke)"><path id="path4_fill-3" data-name="path4 fill" class="cls-1" d="M66.67,203.64V516.83H60.6V203.64Z"/></g><g id="Vector_Stroke_14" data-name="Vector (Stroke)"><path id="path8_fill-2" data-name="path8 fill" class="cls-1" d="M63.71,520.17a6.37,6.37,0,1,0,6.37,6.37A6.37,6.37,0,0,0,63.71,520.17Zm-12.44,6.37A12.44,12.44,0,1,1,63.71,539,12.44,12.44,0,0,1,51.27,526.54Z"/></g><g id="Vector_Stroke_15" data-name="Vector (Stroke)"><path id="path13_fill" data-name="path13 fill" class="cls-1" d="M212.95,59.81C132,59.81,66.67,124.35,66.67,203.65H60.6c0-82.75,68.17-149.92,152.34-149.92Z"/></g><g id="Vector_Stroke_16" data-name="Vector (Stroke)"><path id="path14_fill" data-name="path14 fill" class="cls-1" d="M363.2,203.64v201.2h-6.07V203.64Z"/></g><g id="Vector_Stroke_17" data-name="Vector (Stroke)"><path id="path15_fill" data-name="path15 fill" class="cls-1" d="M360.24,407.89a6.37,6.37,0,1,0,6.37,6.37A6.37,6.37,0,0,0,360.24,407.89Zm-12.44,6.37a12.44,12.44,0,1,1,12.44,12.44A12.44,12.44,0,0,1,347.8,414.26Z"/></g><g id="Vector_Stroke_18" data-name="Vector (Stroke)"><path id="path16_fill" data-name="path16 fill" class="cls-1" d="M213.06,53.74c83,0,150.22,67.21,150.22,149.92h-6.07c0-79.35-64.49-143.85-144.15-143.85Z"/></g></g><path class="cls-1" d="M131,494.74v17.48h21.55V494.74h8v41.52h-8V518.73H131v17.54h-8V494.74Z"/><path class="cls-1" d="M190.81,494.74l18.34,41.52h-8.47l-4.31-10.11H177.91l-4,10.11h-8.41l17.12-41.52Zm-10.46,25.32h13.41l-7-16.44Z"/><path class="cls-1" d="M234,494.21a30,30,0,0,1,6.93.8,35,35,0,0,1,7.31,2.74v7.55a34.45,34.45,0,0,0-7.09-3.18,23.39,23.39,0,0,0-6.79-1,17.27,17.27,0,0,0-8,1.83,13.4,13.4,0,0,0-5.54,5.16,15,15,0,0,0,0,14.86,13.18,13.18,0,0,0,5.53,5.1,17.56,17.56,0,0,0,8,1.8,21.59,21.59,0,0,0,6.53-1,47.36,47.36,0,0,0,7.83-3.54v7.55a36.09,36.09,0,0,1-7.43,3,31.24,31.24,0,0,1-7.91.89,25.65,25.65,0,0,1-11.74-2.62,19.64,19.64,0,0,1-8.13-7.54,20.52,20.52,0,0,1-3-10.77,21.19,21.19,0,0,1,3-11.26,20.43,20.43,0,0,1,8.38-7.7A26.22,26.22,0,0,1,234,494.21Z"/><path class="cls-1" d="M264.38,494.74v19.17h.18l15.22-19.17h9.13L273.44,514.3l20,22H283.19l-18.81-20.39v20.39h-8V494.74Z"/><path class="cls-1" d="M304.8,494.74l24.67,29v-29h7.85v41.52h-6.9L305.6,506.81v29.46h-7.85V494.74Z"/><path class="cls-1" d="M351.85,494.74l10,13.88,10.17-13.88h9.54l-15.69,21v20.57h-8V515.64l-15.78-20.9Z"/><path class="cls-1" d="M393.58,494.74v24.16a13.19,13.19,0,0,0,1.12,5.91,8.72,8.72,0,0,0,3.64,3.63,11.75,11.75,0,0,0,5.88,1.43,13.3,13.3,0,0,0,6.26-1.35,8.52,8.52,0,0,0,3.76-3.69,14.45,14.45,0,0,0,1.19-6.46V494.74h8v24.67q0,8.38-5,12.88t-14.21,4.5a22.71,22.71,0,0,1-10-2.05,14.57,14.57,0,0,1-6.46-5.93,18,18,0,0,1-2.23-9.11v-25Z"/></svg>