<svg width="383" height="487" viewBox="0 0 383 487" version="1.1" xmlns="http://www.w3.org/2000/svg" xmlns:xlink="http://www.w3.org/1999/xlink">
<title>Group 2.1</title>
<desc>Created using Figma</desc>
<g id="Canvas" transform="translate(-3264 -6440)">
<g id="Group 2.1">
<g id="FullLogo">
<g id="Group">
<g id="Group">
<g id="Group">
<g id="Vector (Stroke)">
<use xlink:href="#path0_fill" transform="translate(3272.68 6440.96)" fill="#FFFFFF" fill-opacity="0.7"/>
</g>
<g id="Vector (Stroke)">
<use xlink:href="#path1_fill" transform="translate(3455.37 6440.96)" fill="#FFFFFF" fill-opacity="0.7"/>
</g>
<g id="Vector (Stroke)">
<use xlink:href="#path2_fill" transform="translate(3272.68 6623.64)" fill="#FFFFFF" fill-opacity="0.7"/>
</g>
<g id="Vector (Stroke)">
<use xlink:href="#path3_fill" transform="translate(3632.61 6623.64)" fill="#FFFFFF" fill-opacity="0.7"/>
</g>
<g id="Vector (Stroke)">
<use xlink:href="#path4_fill" transform="translate(3264.24 6902.15)" fill="#FFFFFF" fill-opacity="0.7"/>
</g>
<g id="Vector (Stroke)">
<use xlink:href="#path5_fill" transform="translate(3624.16 6834.09)" fill="#FFFFFF" fill-opacity="0.7"/>
</g>
<g id="Vector (Stroke)">
<use xlink:href="#path2_fill" transform="translate(3295.28 6623.64)" fill="#FFFFFF" fill-opacity="0.7"/>
</g>
<g id="Vector (Stroke)">
<use xlink:href="#path6_fill" transform="translate(3286.84 6902.15)" fill="#FFFFFF" fill-opacity="0.7"/>
</g>
<g id="Vector (Stroke)">
<use xlink:href="#path7_fill" transform="translate(3607.56 6623.64)" fill="#FFFFFF" fill-opacity="0.7"/>
</g>
<g id="Vector (Stroke)">
<use xlink:href="#path8_fill" transform="translate(3599.12 6759.22)" fill="#FFFFFF" fill-opacity="0.7"/>
</g>
<g id="Vector (Stroke)">
<use xlink:href="#path9_fill" transform="translate(3295.28 6465.73)" fill="#FFFFFF" fill-opacity="0.7"/>
</g>
<g id="Vector (Stroke)">
<use xlink:href="#path10_fill" transform="translate(3455.37 6465.73)" fill="#FFFFFF" fill-opacity="0.7"/>
</g>
<g id="Vector (Stroke)">
<use xlink:href="#path2_fill" transform="translate(3318.7 6623.64)" fill="#FFFFFF" fill-opacity="0.7"/>
</g>
<g id="Vector (Stroke)">
<use xlink:href="#path6_fill" transform="translate(3310.25 6902.15)" fill="#FFFFFF" fill-opacity="0.7"/>
</g>
<g id="Vector (Stroke)">
<use xlink:href="#path11_fill" transform="translate(3318.7 6489.15)" fill="#FFFFFF" fill-opacity="0.7"/>
</g>
<g id="Vector (Stroke)">
<use xlink:href="#path12_fill" transform="translate(3584.69 6623.64)" fill="#FFFFFF" fill-opacity="0.7"/>
</g>
<g id="Vector (Stroke)">
<use xlink:href="#path13_fill" transform="translate(3576.25 6801.42)" fill="#FFFFFF" fill-opacity="0.7"/>
</g>
<g id="Vector (Stroke)">
<use xlink:href="#path14_fill" transform="translate(3455.37 6489.15)" fill="#FFFFFF" fill-opacity="0.7"/>
</g>
</g>
<g id="HACK NYU">
<use xlink:href="#path15_fill" transform="translate(3392.18 6882.07)" fill="#FFFFFF"/>
</g>
</g>
</g>
</g>
</g>
</g>
<defs>
<path id="path0_fill" fill-rule="evenodd" d="M 182.68 5.44501C 84.8123 5.44501 5.44501 84.8122 5.44501 182.68L 0 182.68C 0 81.805 81.8051 0 182.68 0L 182.68 5.44501Z"/>
<path id="path1_fill" fill-rule="evenodd" d="M 0 0C 100.875 0 182.68 81.805 182.68 182.68L 177.235 182.68C 177.235 84.8122 97.8678 5.44501 0 5.44501L 0 0Z"/>
<path id="path2_fill" fill-rule="evenodd" d="M 5.44501 0L 5.44501 280.962L 0 280.962L 0 0L 5.44501 0Z"/>
<path id="path3_fill" fill-rule="evenodd" d="M 5.44501 0L 5.44501 213.172L 0 213.172L 0 0L 5.44501 0Z"/>
<path id="path4_fill" fill-rule="evenodd" d="M 11.1623 5.44501C 8.00472 5.44501 5.44501 8.00472 5.44501 11.1623C 5.44501 14.3199 8.00472 16.8796 11.1623 16.8796C 14.3198 16.8796 16.8795 14.3198 16.8795 11.1623C 16.8795 8.00473 14.3198 5.44501 11.1623 5.44501ZM 0 11.1623C 0 4.99754 4.99751 0 11.1623 0C 17.327 0 22.3246 4.99754 22.3246 11.1623C 22.3246 17.327 17.327 22.3246 11.1623 22.3246C 4.99751 22.3246 0 17.327 0 11.1623Z"/>
<path id="path5_fill" fill-rule="evenodd" d="M 11.1622 5.44501C 8.00471 5.44501 5.44501 8.00471 5.44501 11.1623C 5.44501 14.3199 8.00471 16.8796 11.1622 16.8796C 14.3198 16.8796 16.8795 14.3198 16.8795 11.1623C 16.8795 8.00473 14.3198 5.44501 11.1622 5.44501ZM 0 11.1623C 0 4.99755 4.99748 0 11.1622 0C 17.327 0 22.3245 4.99754 22.3245 11.1623C 22.3245 17.327 17.327 22.3246 11.1622 22.3246C 4.99748 22.3246 0 17.327 0 11.1623Z"/>
<path id="path6_fill" fill-rule="evenodd" d="M 11.1623 5.44501C 8.00472 5.44501 5.44501 8.00472 5.44501 11.1623C 5.44501 14.3199 8.00472 16.8796 11.1623 16.8796C 14.3198 16.8796 16.8795 14.3199 16.8795 11.1623C 16.8795 8.00472 14.3198 5.44501 11.1623 5.44501ZM 0 11.1623C 0 4.99754 4.99751 0 11.1623 0C 17.327 0 22.3245 4.99754 22.3245 11.1623C 22.3245 17.327 17.327 22.3246 11.1623 22.3246C 4.99751 22.3246 0 17.327 0 11.1623Z"/>
<path id="path7_fill" fill-rule="evenodd" d="M 5.44501 0L 5.44501 138.303L 0 138.303L 0 0L 5.44501 0Z"/>
<path id="path8_fill" fill-rule="evenodd" d="M 11.1622 5.44501C 8.00471 5.44501 5.44501 8.00471 5.44501 11.1623C 5.44501 14.3199 8.00471 16.8796 11.1622 16.8796C 14.3198 16.8796 16.8795 14.3198 16.8795 11.1623C 16.8795 8.00473 14.3198 5.44501 11.1622 5.44501ZM 0 11.1623C 0 4.99755 4.99748 0 11.1622 0C 17.327 0 22.3245 4.99754 22.3245 11.1623C 22.3245 17.327 17.327 22.3246 11.1622 22.3246C 4.99748 22.3246 0 17.327 0 11.1623Z"/>
<path id="path9_fill" fill-rule="evenodd" d="M 160.083 5.44501C 74.4326 5.44501 5.44501 73.6839 5.44501 157.905L 0 157.905C 0 70.6089 71.4937 0 160.083 0L 160.083 5.44501Z"/>
<path id="path10_fill" fill-rule="evenodd" d="M 0 0C 86.9934 0 157.633 70.6459 157.633 157.905L 152.188 157.905C 152.188 73.6469 83.9799 5.44501 0 5.44501L 0 0Z"/>
<path id="path11_fill" fill-rule="evenodd" d="M 136.67 5.44501C 64.0811 5.44501 5.44501 63.3442 5.44501 134.492L 0 134.492C 0 60.2574 61.1542 0 136.67 0L 136.67 5.44501Z"/>
<path id="path12_fill" fill-rule="evenodd" d="M 5.44501 0L 5.44501 180.502L 0 180.502L 0 0L 5.44501 0Z"/>
<path id="path13_fill" fill-rule="evenodd" d="M 11.1623 5.44501C 8.00473 5.44501 5.44501 8.00473 5.44501 11.1623C 5.44501 14.3198 8.00473 16.8796 11.1623 16.8796C 14.3198 16.8796 16.8795 14.3199 16.8795 11.1623C 16.8795 8.00471 14.3198 5.44501 11.1623 5.44501ZM 0 11.1623C 0 4.99754 4.99754 0 11.1623 0C 17.3271 0 22.3245 4.99755 22.3245 11.1623C 22.3245 17.327 17.3271 22.3246 11.1623 22.3246C 4.99754 22.3246 0 17.327 0 11.1623Z"/>
<path id="path14_fill" fill-rule="evenodd" d="M 0 0C 74.4631 0 134.764 60.2936 134.764 134.492L 129.319 134.492C 129.319 63.3081 71.4632 5.44501 0 5.44501L 0 0Z"/>
<path id="path15_fill" d="M 9.73047 11.9399L 9.73047 25.4341L 26.3687 25.4341L 26.3687 11.9399L 32.5649 11.9399L 32.5649 44L 26.3687 44L 26.3687 30.46L 9.73047 30.46L 9.73047 44L 3.53418 44L 3.53418 11.9399L 9.73047 11.9399ZM 56.3743 11.9399L 70.534 44L 63.9934 44L 60.6658 36.1973L 46.4143 36.1973L 43.3162 44L 36.8216 44L 50.0403 11.9399L 56.3743 11.9399ZM 48.2962 31.4927L 58.6463 31.4927L 53.2303 18.8018L 48.2962 31.4927ZM 90.878 11.5269C 92.6986 11.5269 94.481 11.7334 96.2252 12.1465C 97.9693 12.5596 99.8511 13.2633 101.871 14.2578L 101.871 20.0869C 99.897 18.9548 98.0687 18.1362 96.3858 17.6313C 94.7182 17.1265 92.974 16.874 91.1534 16.874C 88.8738 16.874 86.816 17.3483 84.98 18.2969C 83.1441 19.2301 81.7136 20.5535 80.6885 22.2671C 79.6788 23.9806 79.1739 25.8854 79.1739 27.9814C 79.1739 30.1234 79.6788 32.0435 80.6885 33.7417C 81.6983 35.4399 83.1212 36.7557 84.9571 37.689C 86.793 38.6069 88.8585 39.0659 91.1534 39.0659C 92.9128 39.0659 94.5881 38.8135 96.1793 38.3086C 97.7857 37.8037 99.8052 36.8934 102.238 35.5776L 102.238 41.4067C 100.157 42.493 98.2447 43.2656 96.5005 43.7246C 94.7564 44.1836 92.7216 44.4131 90.3961 44.4131C 87.0149 44.4131 83.9932 43.7399 81.3311 42.3936C 78.669 41.0472 76.573 39.1118 75.043 36.5874C 73.5284 34.0477 72.7711 31.2708 72.7711 28.2568C 72.7711 25.0286 73.5513 22.1294 75.1119 19.5591C 76.6877 16.9888 78.845 15.0075 81.5836 13.6152C 84.3375 12.223 87.4356 11.5269 90.878 11.5269ZM 114.137 11.9399L 114.137 26.7422L 114.274 26.7422L 126.024 11.9399L 133.07 11.9399L 121.136 27.0405L 136.604 44L 128.663 44L 114.137 28.2568L 114.137 44L 107.94 44L 107.94 11.9399L 114.137 11.9399ZM 159.392 11.9399L 178.439 34.3154L 178.439 11.9399L 184.498 11.9399L 184.498 44L 179.174 44L 160.011 21.2573L 160.011 44L 153.953 44L 153.953 11.9399L 159.392 11.9399ZM 196.19 11.9399L 203.947 22.6572L 211.796 11.9399L 219.162 11.9399L 207.045 28.1191L 207.045 44L 200.849 44L 200.849 28.0732L 188.663 11.9399L 196.19 11.9399ZM 229.11 11.9399L 229.11 30.5977C 229.11 32.5101 229.393 34.0324 229.959 35.1646C 230.541 36.2967 231.482 37.23 232.782 37.9644C 234.083 38.6987 235.597 39.0659 237.326 39.0659C 239.223 39.0659 240.83 38.7217 242.145 38.0332C 243.477 37.3294 244.448 36.3809 245.06 35.1875C 245.672 33.9788 245.978 32.3112 245.978 30.1846L 245.978 11.9399L 252.174 11.9399L 252.174 30.9878C 252.174 35.3022 250.881 38.6222 248.296 40.9478C 245.71 43.258 242.054 44.4131 237.326 44.4131C 234.358 44.4131 231.78 43.8853 229.592 42.8296C 227.42 41.7739 225.76 40.2516 224.612 38.2627C 223.465 36.2585 222.891 33.91 222.891 31.2173L 222.891 11.9399L 229.11 11.9399Z"/>
</defs>
</svg>
