<svg xmlns="http://www.w3.org/2000/svg" viewBox="0 0 377 377"><defs><style>.cls-1{fill:#fff;}</style></defs><title>Logo-Square-Clear-Black-Borderless</title><g id="Layer_2" data-name="Layer 2"><g id="Group"><g id="Group-2" data-name="Group"><g id="Vector_Stroke_" data-name="Vector (Stroke)"><path id="path2_fill" data-name="path2 fill" class="cls-1" d="M188.46,51A103.12,103.12,0,0,0,85.35,154.13H82.18A106.29,106.29,0,0,1,188.46,47.86Z"/></g><g id="Vector_Stroke_2" data-name="Vector (Stroke)"><path id="path3_fill" data-name="path3 fill" class="cls-1" d="M188.53,47.86A106.29,106.29,0,0,1,294.8,154.13h-3.17A103.12,103.12,0,0,0,188.53,51Z"/></g><g id="Vector_Stroke_3" data-name="Vector (Stroke)"><path id="path4_fill" data-name="path4 fill" class="cls-1" d="M85.35,154.13V317.58H82.18V154.13Z"/></g><g id="Vector_Stroke_4" data-name="Vector (Stroke)"><path id="path5_fill" data-name="path5 fill" class="cls-1" d="M294.74,154.13v124h-3.17v-124Z"/></g><g id="Vector_Stroke_5" data-name="Vector (Stroke)"><path id="path6_fill" data-name="path6 fill" class="cls-1" d="M83.81,319.32a3.33,3.33,0,1,0,3.33,3.33A3.33,3.33,0,0,0,83.81,319.32Zm-6.49,3.33a6.49,6.49,0,1,1,6.49,6.49A6.49,6.49,0,0,1,77.31,322.65Z"/></g><g id="Vector_Stroke_6" data-name="Vector (Stroke)"><path id="path7_fill" data-name="path7 fill" class="cls-1" d="M293.19,279.73a3.33,3.33,0,1,0,3.33,3.33A3.33,3.33,0,0,0,293.19,279.73Zm-6.49,3.33a6.49,6.49,0,1,1,6.49,6.49A6.49,6.49,0,0,1,286.7,283.05Z"/></g><g id="Vector_Stroke_7" data-name="Vector (Stroke)"><path id="path4_fill-2" data-name="path4 fill" class="cls-1" d="M98.5,154.13V317.58H95.33V154.13Z"/></g><g id="Vector_Stroke_8" data-name="Vector (Stroke)"><path id="path8_fill" data-name="path8 fill" class="cls-1" d="M97,319.32a3.33,3.33,0,1,0,3.33,3.33A3.33,3.33,0,0,0,97,319.32Zm-6.49,3.33A6.49,6.49,0,1,1,97,329.14,6.49,6.49,0,0,1,90.46,322.65Z"/></g><g id="Vector_Stroke_9" data-name="Vector (Stroke)"><path id="path9_fill" data-name="path9 fill" class="cls-1" d="M280.23,154.13v80.46h-3.17V154.13Z"/></g><g id="Vector_Stroke_10" data-name="Vector (Stroke)"><path id="path10_fill" data-name="path10 fill" class="cls-1" d="M278.59,236.17a3.33,3.33,0,1,0,3.33,3.33A3.33,3.33,0,0,0,278.59,236.17Zm-6.49,3.33a6.49,6.49,0,1,1,6.49,6.49A6.49,6.49,0,0,1,272.09,239.5Z"/></g><g id="Vector_Stroke_11" data-name="Vector (Stroke)"><path id="path11_fill" data-name="path11 fill" class="cls-1" d="M188.46,65.44c-49.83,0-90,39.7-90,88.69H95.33c0-50.78,41.59-91.86,93.13-91.86Z"/></g><g id="Vector_Stroke_12" data-name="Vector (Stroke)"><path id="path12_fill" data-name="path12 fill" class="cls-1" d="M188.53,62.27a91.79,91.79,0,0,1,91.7,91.86h-3.17a88.62,88.62,0,0,0-88.54-88.69Z"/></g><g id="Vector_Stroke_13" data-name="Vector (Stroke)"><path id="path4_fill-3" data-name="path4 fill" class="cls-1" d="M112.13,154.13V317.58H109V154.13Z"/></g><g id="Vector_Stroke_14" data-name="Vector (Stroke)"><path id="path8_fill-2" data-name="path8 fill" class="cls-1" d="M110.59,319.32a3.33,3.33,0,1,0,3.33,3.33A3.33,3.33,0,0,0,110.59,319.32Zm-6.49,3.33a6.49,6.49,0,1,1,6.49,6.49A6.49,6.49,0,0,1,104.09,322.65Z"/></g><g id="Vector_Stroke_15" data-name="Vector (Stroke)"><path id="path13_fill" data-name="path13 fill" class="cls-1" d="M188.47,79.06c-42.23,0-76.34,33.68-76.34,75.07H109c0-43.19,35.58-78.24,79.51-78.24Z"/></g><g id="Vector_Stroke_16" data-name="Vector (Stroke)"><path id="path14_fill" data-name="path14 fill" class="cls-1" d="M266.89,154.13v105h-3.17v-105Z"/></g><g id="Vector_Stroke_17" data-name="Vector (Stroke)"><path id="path15_fill" data-name="path15 fill" class="cls-1" d="M265.34,260.72a3.33,3.33,0,1,0,3.33,3.33A3.33,3.33,0,0,0,265.34,260.72Zm-6.49,3.33a6.49,6.49,0,1,1,6.49,6.49A6.49,6.49,0,0,1,258.85,264.05Z"/></g><g id="Vector_Stroke_18" data-name="Vector (Stroke)"><path id="path16_fill" data-name="path16 fill" class="cls-1" d="M188.53,75.89a78.34,78.34,0,0,1,78.4,78.24h-3.17a75.17,75.17,0,0,0-75.23-75.07Z"/></g></g></g><path class="cls-1" d="M145.72,306.05v9.12H157v-9.12h4.19v21.67H157v-9.15H145.72v9.15h-4.19V306.05Z"/><path class="cls-1" d="M176.92,306.05l9.57,21.67h-4.42l-2.25-5.27h-9.63l-2.09,5.27H163.7l8.94-21.67Zm-5.46,13.22h7l-3.66-8.58Z"/><path class="cls-1" d="M199.46,305.77a15.64,15.64,0,0,1,3.62.42,18.25,18.25,0,0,1,3.81,1.43v3.94a18,18,0,0,0-3.7-1.66,12.21,12.21,0,0,0-3.54-.51,9,9,0,0,0-4.17,1,7,7,0,0,0-2.89,2.69,7.83,7.83,0,0,0,0,7.76,6.88,6.88,0,0,0,2.88,2.66,9.16,9.16,0,0,0,4.19.94,11.27,11.27,0,0,0,3.41-.51,24.72,24.72,0,0,0,4.09-1.85V326a18.84,18.84,0,0,1-3.88,1.57,16.3,16.3,0,0,1-4.13.47,13.38,13.38,0,0,1-6.13-1.37,10.25,10.25,0,0,1-4.24-3.93,10.71,10.71,0,0,1-1.54-5.62,11.06,11.06,0,0,1,1.59-5.88,10.66,10.66,0,0,1,4.37-4A13.68,13.68,0,0,1,199.46,305.77Z"/><path class="cls-1" d="M215.31,306.05v10h.09l7.94-10h4.76L220,316.26l10.46,11.46h-5.37l-9.82-10.64v10.64h-4.19V306.05Z"/><path class="cls-1" d="M236.41,306.05l12.88,15.13V306.05h4.1v21.67h-3.6l-13-15.37v15.37h-4.1V306.05Z"/><path class="cls-1" d="M261,306.05l5.24,7.24,5.31-7.24h5L268.3,317v10.73h-4.19V317l-8.24-10.91Z"/><path class="cls-1" d="M282.74,306.05v12.61a6.88,6.88,0,0,0,.58,3.09,4.55,4.55,0,0,0,1.9,1.89,6.13,6.13,0,0,0,3.07.75,6.94,6.94,0,0,0,3.27-.71,4.45,4.45,0,0,0,2-1.92,7.54,7.54,0,0,0,.62-3.37V306.05h4.19v12.88a8.56,8.56,0,0,1-2.62,6.72Q293.09,328,288.3,328a11.85,11.85,0,0,1-5.22-1.07,7.6,7.6,0,0,1-3.37-3.09,9.38,9.38,0,0,1-1.16-4.75v-13Z"/></g></svg>