<svg id="Layer_1" data-name="Layer 1" xmlns="http://www.w3.org/2000/svg" viewBox="0 0 985.37 65.29"><defs><style>.cls-1{fill:#fff;}</style></defs><title>JPMC-White-It-Exists-Lol</title><path id="path29" class="cls-1" d="M796.54,0a12.73,12.73,0,0,0-9.47,3.85,12.07,12.07,0,0,0-3.75,8.72c0,4.15,1.84,8.76,5.53,13.88-6.13,4.09-10.31,7.54-12.48,10.23a15.28,15.28,0,0,0-3.19,9.94,16.11,16.11,0,0,0,2.63,9.1,17.9,17.9,0,0,0,6.66,6.19,18.55,18.55,0,0,0,8.72,2.25c6.18,0,12.08-3.12,17.64-9.29,4.67,6.17,10.08,9.29,16.23,9.29a12.39,12.39,0,0,0,7.5-2.44,11,11,0,0,0,4.22-6.29h-2.25c-1.61,2.83-3.89,4.32-6.85,4.32a10.69,10.69,0,0,1-6.1-2c-1.92-1.3-4.6-4.36-8-9.19a43.25,43.25,0,0,0,4.69-8.82c2-4.86,4-8.19,5.91-9.95a15.6,15.6,0,0,1,6.66-3.66V23.92H810.61v2.25c5,.56,7.41,2.58,7.41,6.19a19.19,19.19,0,0,1-1.59,6.29,35.31,35.31,0,0,1-4.22,7.79q-7.48-10.61-15.85-22c9.05-4.55,13.51-9.23,13.51-14.07a8.84,8.84,0,0,0-4-7.6A15.88,15.88,0,0,0,796.54,0Zm86.12.28a30.53,30.53,0,0,0-15.2,3.85A26.23,26.23,0,0,0,856.67,16a38.78,38.78,0,0,0-3.85,17.07c0,9.21,2.76,16.64,8.35,22.23S874,63.7,882.84,63.7a26.25,26.25,0,0,0,20.54-9.1,16.49,16.49,0,0,1,2.91,6.47h2.06V39.59h-2.06a30.83,30.83,0,0,1-3.56,11.07,17.37,17.37,0,0,1-8.07,8.07,23.67,23.67,0,0,1-10,2.35,19.3,19.3,0,0,1-15.38-7.32c-4.1-4.9-6.1-11.92-6.1-21.11,0-9.7,1.87-17.21,5.63-22.42A17.74,17.74,0,0,1,884,2.44,22.32,22.32,0,0,1,898,7.32c4.16,3.24,6.91,8.95,8.26,17.17h2.06l-.56-23.17h-2.06a22.17,22.17,0,0,1-2.35,8A25.17,25.17,0,0,0,895,3.1,27.07,27.07,0,0,0,882.65.28ZM522.43.47a30.53,30.53,0,0,0-15.2,3.85,26.24,26.24,0,0,0-10.79,11.91,38.73,38.73,0,0,0-3.85,17.07c0,9.21,2.76,16.63,8.35,22.23s12.76,8.35,21.58,8.35c8.33,0,15.19-3,20.54-9a16.52,16.52,0,0,1,3,6.47h2.06V39.78h-2.06a30.79,30.79,0,0,1-3.56,11.07,17.32,17.32,0,0,1-8.07,8.07,23.86,23.86,0,0,1-10,2.44A19.4,19.4,0,0,1,509,53.94c-4.11-4.9-6.1-11.92-6.1-21.11,0-9.7,1.86-17.12,5.63-22.33a17.83,17.83,0,0,1,15.2-7.88A22.29,22.29,0,0,1,537.81,7.5c4.15,3.24,6.9,8.95,8.26,17.17h2.06l-.56-23.08H545.5a21.65,21.65,0,0,1-2.44,7.88,24.46,24.46,0,0,0-8.26-6.19A27,27,0,0,0,522.43.47ZM76.17.66c-3.45,0-8.28.13-14.45.38L54,1.31V3.38h1.13c3.12,0,5.16.3,6.1.84A3.94,3.94,0,0,1,63,7.13a62.69,62.69,0,0,1,.47,9.47v30A66.45,66.45,0,0,1,63,56.47a4.47,4.47,0,0,1-1.88,3.1c-1,.66-2.9.94-5.53.94H54v2.06H82.27V60.51H80.21c-2.76,0-4.63-.3-5.63-1A4.92,4.92,0,0,1,72.7,56.1a84.73,84.73,0,0,1-.28-9.47V33.68h6.75c7,0,11.94-.65,14.73-2a14.24,14.24,0,0,0,6.38-5.82A17.47,17.47,0,0,0,102.53,17a14.07,14.07,0,0,0-3.28-9.57,17.19,17.19,0,0,0-8.44-5.25C87.38,1.16,82.52.66,76.17.66Zm-58.07.66V3.38h1.41c3.11,0,5.08.3,6,.84a4.13,4.13,0,0,1,1.88,2.91,65.75,65.75,0,0,1,.38,9.47V37.43a106.73,106.73,0,0,1-.66,14.73,13.27,13.27,0,0,1-4.32,7.69,12.18,12.18,0,0,1-8.63,3.28,9.81,9.81,0,0,1-4.22-.84A2.48,2.48,0,0,1,8.26,60a4.1,4.1,0,0,1,.47-1.59,5.74,5.74,0,0,0,.56-2.35A4.23,4.23,0,0,0,8,52.91,4.68,4.68,0,0,0,4.6,51.6a4.32,4.32,0,0,0-3.28,1.5A5,5,0,0,0,0,56.66C0,59,1.26,61,3.75,62.76s6,2.53,10.6,2.53a26.65,26.65,0,0,0,10.88-2.06A18.29,18.29,0,0,0,36.12,49.35a87.38,87.38,0,0,0,.56-11.82V16.6a59.42,59.42,0,0,1,.47-9.66A4,4,0,0,1,39,4.13q1.39-.75,5.91-.75h1.5V1.31Zm92.68,0V3.38h1.69c3.12,0,5.08.3,6,.84a4.11,4.11,0,0,1,1.88,2.91,65.27,65.27,0,0,1,.38,9.47V43.25a67.65,67.65,0,0,1-.47,10.41,7.94,7.94,0,0,1-3.1,4.78,11.07,11.07,0,0,1-6.38,2.06v2.06h22V60.51a10.89,10.89,0,0,1-6.57-2.25,7.82,7.82,0,0,1-2.81-4.69,71.26,71.26,0,0,1-.47-10V7.69l24.39,54.88h2.16L173.64,7.69v39a68.2,68.2,0,0,1-.38,9.76,4.63,4.63,0,0,1-2,3.1c-1,.66-2.83.94-5.44.94H163.7v2.06h29.46V60.51h-2.72c-2.78,0-4.65-.3-5.63-1a4.82,4.82,0,0,1-1.88-3.28,76.4,76.4,0,0,1-.38-9.57v-30c0-5.09.15-8.3.47-9.66a4,4,0,0,1,1.88-2.81c.94-.5,3-.75,6-.75h2.25V1.31H174.2L152,52.07,129.46,1.31Zm685.93,1a7.07,7.07,0,0,1,5.53,2.35,8.76,8.76,0,0,1,2.16,6.1c0,4.26-3.2,8.25-9.47,11.91-3.86-5.3-5.72-9.5-5.72-12.57a7.82,7.82,0,0,1,2.06-5.53A7,7,0,0,1,796.72,2.35ZM77.11,2.81c5.59,0,9.61,1.19,12.1,3.56S93,12.47,93,17.54A15.46,15.46,0,0,1,90.81,26a10.15,10.15,0,0,1-5.44,4.41,27.89,27.89,0,0,1-8.54,1.13H72.42V3A44.88,44.88,0,0,1,77.11,2.81ZM683.68,14.45a12.12,12.12,0,0,0-8.82,3.28,11.29,11.29,0,0,0-3.56,8.44A12.59,12.59,0,0,0,673,32.36a12.89,12.89,0,0,0,4.41,4.79A65.79,65.79,0,0,0,686,41.37c4.23,1.81,7.13,3.49,8.72,5.07a8,8,0,0,1,2.35,5.91,9,9,0,0,1-2.72,6.38c-1.82,1.89-4.38,2.81-7.69,2.81q-11,0-14-14.82h-1.78v15.2h1.78a11.63,11.63,0,0,1,1.69-4.6,16.46,16.46,0,0,0,12.95,5.91c4.5,0,8.1-1.23,10.79-3.75a12.9,12.9,0,0,0,4-9.85,13.44,13.44,0,0,0-1.69-6.75,12.09,12.09,0,0,0-4.41-4.5A93.53,93.53,0,0,0,687.15,34c-4.24-1.91-7.09-3.64-8.72-5.16a7.06,7.06,0,0,1-2.53-5.44,7.42,7.42,0,0,1,2-5c1.32-1.5,3.37-2.25,6.19-2.25a11.46,11.46,0,0,1,7.88,3.1,16.1,16.1,0,0,1,4.69,8.35h1.5V15.29h-1.5a7.35,7.35,0,0,1-1.78,4.13,14.48,14.48,0,0,0-5.44-4A16.6,16.6,0,0,0,683.68,14.45ZM222,14.54c-7.26,0-13.25,2.16-18.11,6.57s-7.32,10.27-7.32,17.54c0,7.46,2.44,13.4,7.22,17.92s10.91,6.85,18.39,6.85c7.67,0,13.87-2.33,18.57-6.85s7-10.34,7-17.64c0-7.53-2.5-13.47-7.41-17.83S229.38,14.54,222,14.54Zm108.91,0c-7.33,0-13.08,2.53-17.35,7.6a26.76,26.76,0,0,0-6.47,17.73,22.93,22.93,0,0,0,23.55,23.55,31.27,31.27,0,0,0,10.88-2.25,21.11,21.11,0,0,1,7-1.59,8.68,8.68,0,0,1,1.5.09v-5a44.93,44.93,0,0,1,.38-7.69,3.52,3.52,0,0,1,1.59-2.35,10.62,10.62,0,0,1,4.6-.66V42.4H336.31V44h1.13a11.11,11.11,0,0,1,3.85.47,2.77,2.77,0,0,1,1.5,1.69,15.7,15.7,0,0,1,.56,5.07,11.69,11.69,0,0,1-1.13,5.35,8.31,8.31,0,0,1-3.94,3.56,14.43,14.43,0,0,1-6.57,1.5,15.3,15.3,0,0,1-11.82-5.16C316.73,53,315.2,47,315.2,38.65s1.69-14.16,5-17.45a15.83,15.83,0,0,1,11.54-5,15.29,15.29,0,0,1,10.88,4.22,18.66,18.66,0,0,1,5.53,11.44h1.59V16.14h-1.59a16.86,16.86,0,0,1-1.5,5.35A20.13,20.13,0,0,0,331,14.54Zm614.36,0c-7.26,0-13.25,2.16-18.11,6.57s-7.32,10.27-7.32,17.54c0,7.46,2.34,13.4,7.13,17.92s10.92,6.85,18.39,6.85c7.68,0,13.87-2.33,18.57-6.85s7.13-10.34,7.13-17.64c0-7.53-2.5-13.47-7.41-17.83S952.64,14.54,945.32,14.54Zm-305.26.09-13.7,32.65c-1,2.35-1.64,3.69-1.78,4-1.45,3.69-2.63,6.07-3.66,7.22a7.66,7.66,0,0,1-4.69,2.25v1.59H630.4V60.79a6.06,6.06,0,0,1-3.75-1.13,3.73,3.73,0,0,1-1.41-3.19c0-1.33.91-4.1,2.72-8.44l1.22-3H647l3.66,8.72a20.08,20.08,0,0,1,1.59,4.5A2.07,2.07,0,0,1,651,60.32a14.12,14.12,0,0,1-4.6.47v1.59h18.48V60.79a7,7,0,0,1-3.66-1.22,6.55,6.55,0,0,1-2-2.63l-2.16-4.88L641.47,14.63Zm-368.48.19c-2.64,0-6.21.08-10.69.28l-6.66.28V17H255c2.43,0,4.05.24,4.78.66a3.09,3.09,0,0,1,1.41,2.25,50.77,50.77,0,0,1,.28,7.22V50.28a54.63,54.63,0,0,1-.28,7.5,3.41,3.41,0,0,1-1.5,2.35,8.32,8.32,0,0,1-4.22.75h-1.5v1.59h22.61V60.88H274.3c-2.14,0-3.66-.29-4.41-.84a3.63,3.63,0,0,1-1.41-2.53,67.35,67.35,0,0,1-.19-7.22V40h1.88a4.63,4.63,0,0,1,2.72.66,21.66,21.66,0,0,1,3.28,3.47c1.59,1.94,3.12,4,4.6,6.1,4.6,6.63,8.09,10.71,10.32,12.29h12.57V60.88a12.45,12.45,0,0,1-7.13-2.35q-3-2.23-8.35-9.38c-4.36-5.89-7.6-9.28-9.57-10.23,4.36-.53,7.7-1.85,9.94-4a10.75,10.75,0,0,0,3.38-8,9.64,9.64,0,0,0-2.63-6.75A14.44,14.44,0,0,0,282.55,16,39.83,39.83,0,0,0,271.58,14.82Zm112.29,0L370.08,47.38c-1,2.35-1.53,3.69-1.69,4-1.45,3.69-2.72,6.17-3.75,7.32a7.35,7.35,0,0,1-4.6,2.16v1.59h14.17V60.88a6,6,0,0,1-3.75-1A3.9,3.9,0,0,1,369,56.57c0-1.33.91-4.1,2.72-8.44l1.22-3h17.82l3.56,8.72a23.25,23.25,0,0,1,1.69,4.6,1.93,1.93,0,0,1-1.22,2,14.09,14.09,0,0,1-4.6.47v1.59h18.48V60.88a7,7,0,0,1-3.66-1.13,6.56,6.56,0,0,1-2-2.63l-2.16-5L385.27,14.82Zm175.24.47v1.59H560c2.4,0,3.88.24,4.6.66A3.15,3.15,0,0,1,566,19.79a44.83,44.83,0,0,1,.38,7.22V50.1a49,49,0,0,1-.38,7.6,3.44,3.44,0,0,1-1.5,2.35,8.31,8.31,0,0,1-4.22.75H559.1v1.59h21.39V60.79h-1.22c-2.13,0-3.65-.29-4.41-.84a3.67,3.67,0,0,1-1.41-2.53,58.21,58.21,0,0,1-.28-7.32V38.74h24.58V50.1a54.33,54.33,0,0,1-.28,7.5A3.69,3.69,0,0,1,596,60a8,8,0,0,1-4.13.75h-1.59v1.59h21.29V60.79h-1c-2.1,0-3.55-.29-4.32-.84a3.65,3.65,0,0,1-1.41-2.53,60.83,60.83,0,0,1-.28-7.32V27a43.78,43.78,0,0,1,.38-7.41,3.05,3.05,0,0,1,1.41-2.16,11.81,11.81,0,0,1,4.6-.56h.66V15.29H590.25v1.59h1.22c2.37,0,3.89.24,4.6.66a3.14,3.14,0,0,1,1.41,2.25,51.3,51.3,0,0,1,.28,7.22V36.4H573.18V27a43.15,43.15,0,0,1,.38-7.41,3.11,3.11,0,0,1,1.5-2.16,11.22,11.22,0,0,1,4.5-.56h.94V15.29Zm152,0v1.59c2.29,0,3.79.2,4.5.66A3.28,3.28,0,0,1,717,19.89a52.63,52.63,0,0,1,.28,7.13V50.1a56.78,56.78,0,0,1-.28,7.41,4.19,4.19,0,0,1-1.31,2.35c-.68.62-2.09.94-4.41.94h-1v1.59h38.84l1-14.63h-1.59A23,23,0,0,1,745,56a10.18,10.18,0,0,1-4.5,3.85,18.3,18.3,0,0,1-6.1.84H731c-3.15,0-5.09-.52-5.82-1.5s-1-4.27-1-9.85V38.18h5.07a15.47,15.47,0,0,1,4.32.47,3,3,0,0,1,1.88,1.69,13.86,13.86,0,0,1,.66,5.25h1.59v-16H736a16.12,16.12,0,0,1-.47,4.69A3.07,3.07,0,0,1,733.78,36a13.59,13.59,0,0,1-4.78.56h-4.88V16.89h6.47a32.22,32.22,0,0,1,7,.56A6.83,6.83,0,0,1,741.47,20c1.06,1.37,2,3.76,2.72,7h1.59l-1.13-11.73Zm-296.25.09V17a13.6,13.6,0,0,1,4.88.56,3.37,3.37,0,0,1,1.59,2.35,31.57,31.57,0,0,1,.56,7.22v25a24.36,24.36,0,0,1-.38,5.35,4,4,0,0,1-2.06,2.16,12.29,12.29,0,0,1-5.07,1.22v1.59H431.8V60.88a11.29,11.29,0,0,1-5.53-1,4.7,4.7,0,0,1-2.35-2.35,22.78,22.78,0,0,1-.38-5.35V19.42L457,63.6h1.41v-39a13.32,13.32,0,0,1,.47-4.22,4.37,4.37,0,0,1,2.16-2.25A12.49,12.49,0,0,1,465.76,17V15.38h-17V17a13.35,13.35,0,0,1,4.69.75,4.53,4.53,0,0,1,2.63,2,10.64,10.64,0,0,1,.66,4.41V52.25L428.9,15.38Zm-192.68.84c5.74,0,10.12,2,13.13,5.91s4.5,9.47,4.5,16.79c0,7.53-1.54,13.17-4.6,17a15.17,15.17,0,0,1-12.48,5.72c-6,0-10.5-1.92-13.51-5.72s-4.5-9.4-4.5-17,1.5-13.17,4.5-17S216.49,16.23,222.14,16.23Zm723.27,0c5.73,0,10.11,2,13.13,5.91S963,31.6,963,38.93c0,7.53-1.54,13.17-4.6,17A15.18,15.18,0,0,1,946,61.63c-6,0-10.59-1.92-13.6-5.72s-4.5-9.4-4.5-17,1.49-13.17,4.5-17S939.76,16.23,945.41,16.23Zm-674.21.28c5.48,0,9.06,1,10.69,3a12.22,12.22,0,0,1,2.44,8,13.8,13.8,0,0,1-.75,4.78,8.42,8.42,0,0,1-2,3.19,8.08,8.08,0,0,1-3.28,1.78,19.87,19.87,0,0,1-4.78.75c-1.83.09-3.54.15-5.25.19V16.6C269.39,16.51,270.36,16.51,271.2,16.51Zm366.89,6.85,8.26,19.89H629.93Zm-256.19.09,8.26,20H373.64Zm408.35,5c4.79,6.26,10.54,14.39,17.17,24.49-3.73,4.34-7.8,6.57-12.2,6.57-4,0-7.56-1.71-10.69-5.16a16.33,16.33,0,0,1-4.69-11.07,14,14,0,0,1,2.72-7.79A24.21,24.21,0,0,1,790.25,28.42Zm190,25a5.12,5.12,0,0,0-5.16,5.16,5.16,5.16,0,0,0,1.5,3.66,4.8,4.8,0,0,0,3.66,1.5,5,5,0,0,0,3.66-1.5,4.9,4.9,0,0,0,1.5-3.66,5,5,0,0,0-1.5-3.66A4.94,4.94,0,0,0,980.21,53.47Z"/></svg>