<svg id="Layer_1" data-name="Layer 1" xmlns="http://www.w3.org/2000/svg" viewBox="0 0 1072 800"><path d="M519.394,480.675c.554,0,1.109-.019,1.664-.03-.668.012-1.336.025-2,.029C519.168,480.674,519.28,480.676,519.394,480.675Z" fill="#3b80c4"/><path d="M473.944,474.47c.823.238,1.653.459,2.481.685-.808-.219-1.617-.437-2.42-.668Z" fill="#3b80c4"/><path d="M517.1,480.668c-.37,0-.741,0-1.111-.007C516.359,480.667,516.73,480.665,517.1,480.668Z" fill="#3b80c4"/><path d="M477.858,475.543c1,.262,2,.51,3.01.753q-1.5-.36-2.989-.748Z" fill="#3b80c4"/><path d="M484.977,477.229q-1.692-.36-3.371-.757l-.111-.026c2.1.5,4.207.971,6.336,1.387,1.849.361,3.715.679,5.586.977a.655.655,0,0,0,.073-.015q-4.2-.664-8.345-1.532Z" fill="#3b80c4"/><path d="M519.054,480.674c-.652,0-1.3,0-1.954-.007C517.751,480.672,518.4,480.678,519.054,480.674Z" fill="#3b80c4"/><path d="M481.175,476.372l.319.074-.626-.151C480.971,476.32,481.073,476.348,481.175,476.372Z" fill="#3b80c4"/><path d="M493.49,478.8c3.259.514,6.542.94,9.854,1.255,1.876.179,3.764.313,5.655.426.052-.011.1-.034.153-.047q3.409.189,6.837.231a161.792,161.792,0,0,1-22.416-1.883C493.546,478.783,493.518,478.789,493.49,478.8Z" fill="#3b80c4"/><path d="M477.474,475.444l.385.1c-.479-.126-.956-.258-1.433-.388C476.775,475.25,477.122,475.352,477.474,475.444Z" fill="#3b80c4"/><path d="M473.855,474.445l.089.025c-.84-.243-1.674-.5-2.509-.755C472.241,473.961,473.045,474.211,473.855,474.445Z" fill="#3b80c4"/><path d="M550.587,442.759q1.4-.367,2.8-.768c.275-.079.55-.157.825-.237q1.295-.38,2.58-.79c.357-.113.713-.226,1.069-.342q1.121-.367,2.233-.757c.48-.167.96-.335,1.438-.508.259-.094.52-.18.778-.275.091-.034.176-.076.265-.114,1.757-.653,3.5-1.333,5.229-2.066a6.808,6.808,0,0,0-5.32-12.534q-2.772,1.177-5.611,2.195c-.413.15-.827.294-1.242.439-.677.236-1.355.468-2.036.69-.3.1-.6.193-.9.288-.783.248-1.569.491-2.358.722-.223.065-.446.129-.67.193q-1.279.366-2.566.7l-.555.142q-1.329.339-2.666.648l-.534.12q-1.336.3-2.679.568c-.2.039-.393.076-.59.114q-1.306.253-2.617.476c-.236.04-.473.078-.709.116q-1.246.2-2.5.379c-.291.041-.583.079-.874.117q-1.166.154-2.336.285c-.354.039-.708.075-1.063.111q-1.077.109-2.157.2c-.416.034-.832.064-1.249.094-.662.047-1.325.09-1.988.126-.47.025-.939.045-1.409.064-.615.025-1.23.048-1.845.063-.51.012-1.021.02-1.531.025-.583.006-1.166.01-1.749.008-.53,0-1.06-.011-1.589-.021-.573-.011-1.146-.023-1.719-.043-.524-.018-1.047-.041-1.571-.066-.592-.028-1.183-.059-1.774-.1-.4-.025-.791-.056-1.187-.085q-1.847-.138-3.687-.334c-.165-.018-.33-.032-.5-.05-1.134-.128-2.263-.288-3.392-.45-.407-.058-.816-.106-1.222-.169-1.209-.188-2.412-.406-3.613-.633-.3-.057-.609-.105-.912-.165-1.233-.244-2.458-.518-3.681-.8-.275-.064-.553-.119-.828-.185-1.2-.289-2.4-.609-3.59-.937-.3-.082-.594-.154-.889-.238-1.135-.323-2.26-.675-3.383-1.032-.352-.112-.706-.214-1.057-.33-1.037-.342-2.064-.711-3.09-1.083-.433-.156-.87-.3-1.3-.465-.927-.348-1.844-.723-2.761-1.1-.52-.211-1.045-.412-1.562-.631-.82-.347-1.629-.719-2.441-1.085-.6-.272-1.207-.533-1.8-.815-.725-.343-1.438-.708-2.156-1.066-.667-.333-1.339-.657-2-1s-1.291-.7-1.936-1.057c-.707-.388-1.419-.77-2.117-1.173-.615-.355-1.218-.73-1.826-1.1-.706-.425-1.415-.844-2.112-1.285-.63-.4-1.247-.818-1.868-1.23-.651-.43-1.306-.853-1.947-1.3-.7-.487-1.393-1-2.086-1.5-.534-.388-1.074-.767-1.6-1.164-.853-.643-1.688-1.31-2.522-1.978-.341-.273-.69-.538-1.028-.815q-1.635-1.342-3.218-2.749c-1.37-1.214-2.721-2.451-4.03-3.734a6.808,6.808,0,1,0-9.528,9.729c1.4,1.369,2.835,2.693,4.294,3.992.011.01.02.021.031.03.148.132.3.255.451.386,1.093.963,2.2,1.915,3.321,2.838.459.377.931.735,1.395,1.105.859.684,1.715,1.371,2.591,2.032.654.493,1.323.964,1.986,1.445.716.519,1.427,1.046,2.154,1.549.767.531,1.551,1.038,2.33,1.552.651.429,1.295.868,1.953,1.285.816.517,1.647,1.008,2.475,1.506.649.391,1.292.791,1.948,1.17.808.467,1.63.908,2.448,1.357.7.383,1.393.776,2.1,1.146.76.4,1.532.772,2.3,1.154.786.392,1.568.792,2.363,1.168.68.321,1.37.62,2.055.929.9.407,1.8.819,2.71,1.2.581.246,1.171.472,1.756.709,1.028.417,2.055.837,3.094,1.228.483.181.972.345,1.457.521,1.15.417,2.3.831,3.464,1.214.394.13.793.245,1.189.371,1.259.4,2.52.8,3.792,1.158.328.093.659.174.988.264,1.34.37,2.682.729,4.035,1.054.3.073.611.134.916.205,1.374.32,2.751.628,4.137.9.342.068.686.121,1.028.186,1.344.254,2.689.5,4.042.708.465.072.934.126,1.4.193,1.073.154,2.143.319,3.221.445.183.021.366.035.549.056s.387.038.58.059q2.046.22,4.1.371c.22.017.438.044.658.06.237.017.475.024.713.039.644.041,1.288.074,1.932.105.607.029,1.214.057,1.821.077s1.238.034,1.857.046,1.24.021,1.86.024,1.249,0,1.874-.009c.6-.007,1.2-.015,1.8-.03.659-.016,1.318-.041,1.977-.067.558-.023,1.115-.046,1.673-.076.711-.038,1.421-.085,2.131-.135.5-.035,1-.071,1.5-.112.773-.064,1.544-.137,2.315-.215.432-.044.864-.087,1.3-.135.837-.093,1.673-.2,2.508-.307.364-.048.729-.1,1.093-.146q1.347-.189,2.688-.409c.3-.049.6-.1.9-.148q1.418-.241,2.829-.515c.255-.049.51-.1.764-.148q1.458-.291,2.907-.617c.23-.052.46-.1.69-.155q1.456-.335,2.9-.706C550.115,442.88,550.351,442.82,550.587,442.759Z" fill="#3b80c4"/><path d="M594.995,338.027a6.807,6.807,0,0,0,5.165,8.125,6.909,6.909,0,0,0,1.016.149,6.81,6.81,0,0,0,7.11-5.314,92.993,92.993,0,0,0,1.99-13.681,91.915,91.915,0,0,0-85.313-98.073,92.221,92.221,0,0,0-25.424,1.756,6.809,6.809,0,1,0,2.809,13.325A78.4,78.4,0,0,1,577.365,269.2a77.741,77.741,0,0,1,19.326,57.153A79.363,79.363,0,0,1,594.995,338.027Z" fill="#3b80c4"/><path d="M566.866,182.707a146.523,146.523,0,0,1,96.992,120.118,6.808,6.808,0,1,0,13.513-1.673,160.133,160.133,0,0,0-106.028-131.3,6.808,6.808,0,0,0-4.477,12.859Z" fill="#3b80c4"/><path d="M671.7,329.183a6.882,6.882,0,0,0-7.441,6.109A146.5,146.5,0,0,1,554.893,462.767a6.808,6.808,0,1,0,3.365,13.194A160.108,160.108,0,0,0,677.81,336.624,6.807,6.807,0,0,0,671.7,329.183Z" fill="#3b80c4"/><path d="M466.019,245.513a92.9,92.9,0,0,0-8.155,6.408,6.829,6.829,0,0,0-.952,1.029c-.782.712-1.557,1.433-2.312,2.169a6.808,6.808,0,1,0,9.5,9.751,79.306,79.306,0,0,1,6.671-5.811,6.823,6.823,0,0,0,.826-.769c.733-.551,1.471-1.093,2.217-1.615a6.808,6.808,0,1,0-7.8-11.163Z" fill="#3b80c4"/><path d="M593.681,419.836a6.787,6.787,0,0,0,4.792-1.531q1.673-1.374,3.312-2.816a126.006,126.006,0,0,0,24.553-159.827,6.808,6.808,0,1,0-11.639,7.068,112.392,112.392,0,0,1-21.906,142.534q-1.467,1.288-2.963,2.518a6.809,6.809,0,0,0,3.851,12.053Z" fill="#3b80c4"/><path d="M603.36,227.755a125.977,125.977,0,0,0-167.981-1.395c-.988.869-3.6,3.369-6.367,6.022a6.568,6.568,0,0,0,9.543,8.852c2.64-2.17,5.225-4.26,7.533-6.209a112.318,112.318,0,0,1,148.89,3.457,6.811,6.811,0,0,0,9.713-1.793A7.029,7.029,0,0,0,603.36,227.755Z" fill="#3b80c4"/><path d="M417.5,373.979a6.809,6.809,0,0,0,12.147,6.154,10.218,10.218,0,0,1,17.089-1.752c.683.855,1.4,1.679,2.1,2.506a10.421,10.421,0,0,1,.738.755,91.914,91.914,0,0,0,129.723,8.29,92.453,92.453,0,0,0,11.639-12.313c.845-1.075,1.672-2.163,2.466-3.273a6.809,6.809,0,1,0-11.076-7.921q-1.245,1.741-2.593,3.413c-.22.274-.454.538-.678.81-.749.91-1.507,1.812-2.3,2.689-.1.109-.2.213-.3.322-.927,1.015-1.874,2.012-2.855,2.979l-.012.011q-1.6,1.575-3.287,3.061a78.3,78.3,0,0,1-110.5-7.06c-.25-.284-.523-.539-.784-.809-.553-.648-1.111-1.29-1.645-1.958a23.838,23.838,0,0,0-39.872,4.1Z" fill="#3b80c4"/><path d="M400.9,244.79c.112.126.222.253.337.377a6.932,6.932,0,0,0,10.26-9.314c-.1-.107-.2-.218-.3-.329a10.749,10.749,0,0,1-2.512-7.13c-.005-2.392,1.843-5.706,3.076-7.236,3.412-4.235,10.314-10.221,16.013-14.724A146.5,146.5,0,0,1,541.187,176.58a6.808,6.808,0,0,0,2.11-13.452c-1.518-.238-3.037-.434-4.556-.628a159.152,159.152,0,0,0-88.687,14.161c-18.1,8.586-38.248,23.781-48.015,34.966-2.914,3.337-6.967,10.462-7.206,16.191A23.936,23.936,0,0,0,400.9,244.79Z" fill="#3b80c4"/><path d="M522.742,467.253c-4.755.133-9.573.032-14.319-.3a145.359,145.359,0,0,1-82.21-32.447l-.2-.168c-1.272-1.043-2.52-2.121-3.761-3.208-.4-.355-.811-.705-1.211-1.065-.975-.873-1.933-1.77-2.887-2.672a146.19,146.19,0,0,1-11.069-11.719c-.3-.35-.6-.692-.895-1.045a6.806,6.806,0,0,0-10.542,8.611c.312.376.63.744.944,1.117a161.466,161.466,0,0,0,21.457,20.968c.054.049.1.1.16.148.2.164.409.324.614.486l.071.056.462.366c.157.123.316.241.473.364a158.242,158.242,0,0,0,51.608,26.968c.812.249,1.625.5,2.442.735a159.224,159.224,0,0,1-66.343-38.333,158.9,158.9,0,0,0,99.944,44.423c5.185.36,10.448.47,15.643.326a6.8,6.8,0,0,0,1.941-.341c-1.893.08-3.785.138-5.669.151h-.3c.654,0,1.309-.016,1.964-.028q2-.04,4-.121a6.808,6.808,0,0,0-2.321-13.272Zm-46.317,7.9q.559.152,1.118.3c-.676-.177-1.348-.366-2.021-.552C475.824,474.988,476.124,475.073,476.425,475.155Zm17.149,3.624q5.491.849,11.068,1.321-5.575-.469-11.068-1.321Zm11.275,1.337c1.675.14,3.356.249,5.04.336Q507.362,480.322,504.849,480.116Zm5.758.375q2.619.125,5.253.167C514.1,480.631,512.353,480.572,510.606,480.49Z" fill="#3b80c4"/><path d="M162.147,599.728a42.154,42.154,0,0,1,2.5-14.149,39.3,39.3,0,0,1,7.322-12.647,36.833,36.833,0,0,1,11.819-9.04,35.384,35.384,0,0,1,15.867-3.444q10.542,0,18.088,4.776a30.382,30.382,0,0,1,8.743,8.21,4.7,4.7,0,0,1-1.292,6.648h0a4.681,4.681,0,0,1-6.366-1.213,20.123,20.123,0,0,0-2.029-2.445,22.161,22.161,0,0,0-5.441-4.1,23.454,23.454,0,0,0-6.045-2.221,29.242,29.242,0,0,0-6.1-.666,24.031,24.031,0,0,0-11.6,2.724,26.78,26.78,0,0,0-8.483,7.1,30.633,30.633,0,0,0-5.163,9.876,36.8,36.8,0,0,0-1.718,11.037,34.01,34.01,0,0,0,2.051,11.819,32.551,32.551,0,0,0,5.712,9.93,27.908,27.908,0,0,0,8.661,6.881,23.518,23.518,0,0,0,10.875,2.554,27.573,27.573,0,0,0,6.378-.782,23.166,23.166,0,0,0,6.269-2.492,26.983,26.983,0,0,0,5.6-4.327,20.045,20.045,0,0,0,2.2-2.624,4.768,4.768,0,0,1,6.187-1.4h0a4.757,4.757,0,0,1,1.674,6.87,24.6,24.6,0,0,1-2.735,3.25,33.388,33.388,0,0,1-7.655,5.72,39.2,39.2,0,0,1-9.048,3.545,37.564,37.564,0,0,1-9.319,1.223,31.493,31.493,0,0,1-14.868-3.553,39.443,39.443,0,0,1-11.7-9.265,43.148,43.148,0,0,1-10.379-27.794Z" fill="#fff"/><path d="M296.187,640.231a33.574,33.574,0,0,1-15.147-3.39,37.193,37.193,0,0,1-11.7-8.986,40.629,40.629,0,0,1-7.546-12.817,42.319,42.319,0,0,1-2.663-14.752,41.055,41.055,0,0,1,2.825-15.093,41.706,41.706,0,0,1,7.825-12.763,37.7,37.7,0,0,1,11.819-8.816,33.809,33.809,0,0,1,14.814-3.274A32.373,32.373,0,0,1,311.5,563.83a38.767,38.767,0,0,1,11.656,9.156,42.459,42.459,0,0,1,10.209,27.407,40.9,40.9,0,0,1-2.833,15.093,41.531,41.531,0,0,1-7.763,12.7A37.459,37.459,0,0,1,311,636.957,33.809,33.809,0,0,1,296.187,640.231Zm-26.966-39.946a35.226,35.226,0,0,0,1.943,11.594,31.968,31.968,0,0,0,5.5,9.93,26.606,26.606,0,0,0,8.545,6.881,24,24,0,0,0,11.091,2.546,23.224,23.224,0,0,0,11.324-2.717,27.655,27.655,0,0,0,8.483-7.1,31.822,31.822,0,0,0,5.333-9.93,35.73,35.73,0,0,0,1.827-11.207,35.192,35.192,0,0,0-1.943-11.594,30.646,30.646,0,0,0-5.55-9.876,27.73,27.73,0,0,0-8.537-6.827,23.454,23.454,0,0,0-10.937-2.554A23.713,23.713,0,0,0,284.98,572.1a27.375,27.375,0,0,0-8.491,7,31.979,31.979,0,0,0-5.379,9.868A35.074,35.074,0,0,0,269.221,600.285Z" fill="#fff"/><path d="M379.407,579.534v55.147a4.992,4.992,0,0,1-4.992,4.992h0a4.992,4.992,0,0,1-4.992-4.992V566.126a5.237,5.237,0,0,1,5.237-5.237h0a5.237,5.237,0,0,1,4.1,1.976l47.251,59.386V566A4.992,4.992,0,0,1,431,561h0A4.992,4.992,0,0,1,435.994,566V633.98a5.694,5.694,0,0,1-5.694,5.694h0a5.694,5.694,0,0,1-4.444-2.135Z" fill="#fff"/><path d="M529.419,569.767H506.675v64.915a4.992,4.992,0,0,1-4.992,4.992h0a4.992,4.992,0,0,1-4.992-4.992V569.767H473.939a4.439,4.439,0,0,1-4.439-4.439h0a4.439,4.439,0,0,1,4.439-4.439h55.48a4.439,4.439,0,0,1,4.439,4.439h0A4.439,4.439,0,0,1,529.419,569.767Z" fill="#fff"/><path d="M567.371,634.681V565.8a4.915,4.915,0,0,1,4.915-4.915H601.1a21.413,21.413,0,0,1,9.6,2.167,24.293,24.293,0,0,1,7.554,5.766,27.844,27.844,0,0,1,4.938,8.1,24.841,24.841,0,0,1,1.765,9.156,27.218,27.218,0,0,1-1.161,7.933,24.667,24.667,0,0,1-3.328,6.935,22.424,22.424,0,0,1-5.217,5.325,20.242,20.242,0,0,1-6.827,3.22l14.443,22.836a4.784,4.784,0,0,1-4.043,7.342h0a4.784,4.784,0,0,1-4.039-2.219l-16.563-26.078H577.356v23.3a4.992,4.992,0,0,1-4.992,4.992h0A4.992,4.992,0,0,1,567.371,634.681Zm9.985-32.183H601.21a11.661,11.661,0,0,0,5.6-1.331,13.1,13.1,0,0,0,4.272-3.607,17.141,17.141,0,0,0,2.771-5.263,19.578,19.578,0,0,0,1.006-6.215,16.9,16.9,0,0,0-1.161-6.269,18.623,18.623,0,0,0-3.111-5.217,14.187,14.187,0,0,0-4.551-3.553,12.34,12.34,0,0,0-5.5-1.277H577.356Z" fill="#fff"/><path d="M690.65,560.889h0a6.283,6.283,0,0,1,5.817,3.908l27.808,68.092a4.923,4.923,0,0,1-4.558,6.785h0a4.923,4.923,0,0,1-4.565-3.08l-8.075-20H674.012l-7.976,19.987a4.915,4.915,0,0,1-4.565,3.094h0a4.915,4.915,0,0,1-4.548-6.78l27.914-68.1A6.283,6.283,0,0,1,690.65,560.889Zm14.206,47.941-14.2-36.4-14.644,36.4Z" fill="#fff"/><path d="M759.779,636.526V565.8a4.915,4.915,0,0,1,4.915-4.915h28.815a21.436,21.436,0,0,1,9.6,2.167,24.261,24.261,0,0,1,7.546,5.766,27.678,27.678,0,0,1,4.938,8.1,24.85,24.85,0,0,1,1.772,9.156,26.965,26.965,0,0,1-1.169,7.933,24.457,24.457,0,0,1-3.328,6.935,22.392,22.392,0,0,1-5.209,5.325,20.382,20.382,0,0,1-6.827,3.22l14.44,22.831a4.788,4.788,0,0,1-4.046,7.347h0a4.788,4.788,0,0,1-4.041-2.221l-16.562-26.076H769.763v25.149a3.148,3.148,0,0,1-3.148,3.148h-3.688A3.148,3.148,0,0,1,759.779,636.526Zm9.985-34.027h23.854a11.7,11.7,0,0,0,5.6-1.331,13.265,13.265,0,0,0,4.272-3.607,17.309,17.309,0,0,0,2.771-5.263,19.571,19.571,0,0,0,1-6.215,16.9,16.9,0,0,0-1.161-6.269,18.441,18.441,0,0,0-3.111-5.217,14.076,14.076,0,0,0-4.543-3.553,12.364,12.364,0,0,0-5.5-1.277H769.763Z" fill="#fff"/><path d="M855.714,563.1l22.571,38.851,22.793-38.867a4.439,4.439,0,0,1,3.829-2.193h.5a4.439,4.439,0,0,1,3.809,6.719l-25.939,43.328v23.746a4.992,4.992,0,0,1-4.992,4.992h0a4.992,4.992,0,0,1-4.992-4.992V610.711l-25.826-43.1a4.439,4.439,0,0,1,3.808-6.72h.6A4.439,4.439,0,0,1,855.714,563.1Z" fill="#fff"/></svg>