<?xml version="1.0" encoding="utf-8"?>
<!-- Generator: Adobe Illustrator 21.0.2, SVG Export Plug-In . SVG Version: 6.00 Build 0)  -->
<svg version="1.1" id="Layer_1" xmlns="http://www.w3.org/2000/svg" xmlns:xlink="http://www.w3.org/1999/xlink" x="0px" y="0px"
	 viewBox="0 0 1072 800" style="enable-background:new 0 0 1072 800;" xml:space="preserve">
<style type="text/css">
	.st0{fill:#FFFFFF;}
</style>
<path class="st0" d="M519.4,480.7c0.6,0,1.1,0,1.7,0c-0.7,0-1.3,0-2,0C519.2,480.7,519.3,480.7,519.4,480.7z"/>
<path class="st0" d="M473.9,474.5c0.8,0.2,1.7,0.5,2.5,0.7C475.6,474.9,474.8,474.7,473.9,474.5L473.9,474.5z"/>
<path class="st0" d="M517.1,480.7c-0.4,0-0.7,0-1.1,0C516.4,480.7,516.7,480.7,517.1,480.7z"/>
<path class="st0" d="M477.9,475.5c1,0.3,2,0.5,3,0.8C479.9,476.1,478.9,475.8,477.9,475.5L477.9,475.5z"/>
<path class="st0" d="M485,477.2c-1.1-0.2-2.3-0.5-3.4-0.8l-0.1,0c2.1,0.5,4.2,1,6.3,1.4c1.8,0.4,3.7,0.7,5.6,1c0,0,0,0,0.1,0
	c-2.8-0.4-5.6-1-8.3-1.5L485,477.2z"/>
<path class="st0" d="M519.1,480.7c-0.7,0-1.3,0-2,0C517.8,480.7,518.4,480.7,519.1,480.7z"/>
<path class="st0" d="M481.2,476.4l0.3,0.1l-0.6-0.2C481,476.3,481.1,476.3,481.2,476.4z"/>
<path class="st0" d="M493.5,478.8c3.3,0.5,6.5,0.9,9.9,1.3c1.9,0.2,3.8,0.3,5.7,0.4c0.1,0,0.1,0,0.2,0c2.3,0.1,4.6,0.2,6.8,0.2
	C508.5,480.6,501,479.9,493.5,478.8C493.5,478.8,493.5,478.8,493.5,478.8z"/>
<path class="st0" d="M477.5,475.4l0.4,0.1c-0.5-0.1-1-0.3-1.4-0.4C476.8,475.3,477.1,475.4,477.5,475.4z"/>
<path class="st0" d="M473.9,474.4L473.9,474.4c-0.8-0.2-1.6-0.5-2.4-0.7C472.2,474,473,474.2,473.9,474.4z"/>
<path class="st0" d="M550.6,442.8c0.9-0.2,1.9-0.5,2.8-0.8c0.3-0.1,0.5-0.2,0.8-0.2c0.9-0.3,1.7-0.5,2.6-0.8
	c0.4-0.1,0.7-0.2,1.1-0.3c0.7-0.2,1.5-0.5,2.2-0.8c0.5-0.2,1-0.3,1.4-0.5c0.3-0.1,0.5-0.2,0.8-0.3c0.1,0,0.2-0.1,0.3-0.1
	c1.8-0.7,3.5-1.3,5.2-2.1c3.5-1.5,5.1-5.5,3.6-8.9s-5.5-5.1-8.9-3.6c-1.8,0.8-3.7,1.5-5.6,2.2c-0.4,0.1-0.8,0.3-1.2,0.4
	c-0.7,0.2-1.4,0.5-2,0.7c-0.3,0.1-0.6,0.2-0.9,0.3c-0.8,0.2-1.6,0.5-2.4,0.7c-0.2,0.1-0.4,0.1-0.7,0.2c-0.9,0.2-1.7,0.5-2.6,0.7
	l-0.6,0.1c-0.9,0.2-1.8,0.4-2.7,0.6l-0.5,0.1c-0.9,0.2-1.8,0.4-2.7,0.6c-0.2,0-0.4,0.1-0.6,0.1c-0.9,0.2-1.7,0.3-2.6,0.5
	c-0.2,0-0.5,0.1-0.7,0.1c-0.8,0.1-1.7,0.3-2.5,0.4c-0.3,0-0.6,0.1-0.9,0.1c-0.8,0.1-1.6,0.2-2.3,0.3c-0.4,0-0.7,0.1-1.1,0.1
	c-0.7,0.1-1.4,0.1-2.2,0.2c-0.4,0-0.8,0.1-1.2,0.1c-0.7,0-1.3,0.1-2,0.1c-0.5,0-0.9,0-1.4,0.1c-0.6,0-1.2,0-1.8,0.1
	c-0.5,0-1,0-1.5,0c-0.6,0-1.2,0-1.7,0c-0.5,0-1.1,0-1.6,0c-0.6,0-1.1,0-1.7,0c-0.5,0-1,0-1.6-0.1c-0.6,0-1.2-0.1-1.8-0.1
	c-0.4,0-0.8-0.1-1.2-0.1c-1.2-0.1-2.5-0.2-3.7-0.3c-0.2,0-0.3,0-0.5,0c-1.1-0.1-2.3-0.3-3.4-0.5c-0.4-0.1-0.8-0.1-1.2-0.2
	c-1.2-0.2-2.4-0.4-3.6-0.6c-0.3-0.1-0.6-0.1-0.9-0.2c-1.2-0.2-2.5-0.5-3.7-0.8c-0.3-0.1-0.6-0.1-0.8-0.2c-1.2-0.3-2.4-0.6-3.6-0.9
	c-0.3-0.1-0.6-0.2-0.9-0.2c-1.1-0.3-2.3-0.7-3.4-1c-0.4-0.1-0.7-0.2-1.1-0.3c-1-0.3-2.1-0.7-3.1-1.1c-0.4-0.2-0.9-0.3-1.3-0.5
	c-0.9-0.3-1.8-0.7-2.8-1.1c-0.5-0.2-1-0.4-1.6-0.6c-0.8-0.3-1.6-0.7-2.4-1.1c-0.6-0.3-1.2-0.5-1.8-0.8c-0.7-0.3-1.4-0.7-2.2-1.1
	c-0.7-0.3-1.3-0.7-2-1s-1.3-0.7-1.9-1.1c-0.7-0.4-1.4-0.8-2.1-1.2c-0.6-0.4-1.2-0.7-1.8-1.1c-0.7-0.4-1.4-0.8-2.1-1.3
	c-0.6-0.4-1.2-0.8-1.9-1.2c-0.7-0.4-1.3-0.9-1.9-1.3c-0.7-0.5-1.4-1-2.1-1.5c-0.5-0.4-1.1-0.8-1.6-1.2c-0.9-0.6-1.7-1.3-2.5-2
	c-0.3-0.3-0.7-0.5-1-0.8c-1.1-0.9-2.2-1.8-3.2-2.7c-1.4-1.2-2.7-2.5-4-3.7c-2.7-2.6-7-2.6-9.6,0.1s-2.6,7,0.1,9.6l0,0
	c1.4,1.4,2.8,2.7,4.3,4c0,0,0,0,0,0c0.1,0.1,0.3,0.3,0.5,0.4c1.1,1,2.2,1.9,3.3,2.8c0.5,0.4,0.9,0.7,1.4,1.1c0.9,0.7,1.7,1.4,2.6,2
	c0.7,0.5,1.3,1,2,1.4c0.7,0.5,1.4,1,2.2,1.5c0.8,0.5,1.6,1,2.3,1.6c0.7,0.4,1.3,0.9,2,1.3c0.8,0.5,1.6,1,2.5,1.5
	c0.6,0.4,1.3,0.8,1.9,1.2c0.8,0.5,1.6,0.9,2.4,1.4c0.7,0.4,1.4,0.8,2.1,1.1c0.8,0.4,1.5,0.8,2.3,1.2c0.8,0.4,1.6,0.8,2.4,1.2
	c0.7,0.3,1.4,0.6,2.1,0.9c0.9,0.4,1.8,0.8,2.7,1.2c0.6,0.2,1.2,0.5,1.8,0.7c1,0.4,2.1,0.8,3.1,1.2c0.5,0.2,1,0.3,1.5,0.5
	c1.1,0.4,2.3,0.8,3.5,1.2c0.4,0.1,0.8,0.2,1.2,0.4c1.3,0.4,2.5,0.8,3.8,1.2c0.3,0.1,0.7,0.2,1,0.3c1.3,0.4,2.7,0.7,4,1.1
	c0.3,0.1,0.6,0.1,0.9,0.2c1.4,0.3,2.8,0.6,4.1,0.9c0.3,0.1,0.7,0.1,1,0.2c1.3,0.3,2.7,0.5,4,0.7c0.5,0.1,0.9,0.1,1.4,0.2
	c1.1,0.2,2.1,0.3,3.2,0.4c0.2,0,0.4,0,0.5,0.1s0.4,0,0.6,0.1c1.4,0.1,2.7,0.3,4.1,0.4c0.2,0,0.4,0,0.7,0.1c0.2,0,0.5,0,0.7,0
	c0.6,0,1.3,0.1,1.9,0.1c0.6,0,1.2,0.1,1.8,0.1s1.2,0,1.9,0s1.2,0,1.9,0s1.2,0,1.9,0c0.6,0,1.2,0,1.8,0c0.7,0,1.3,0,2-0.1
	c0.6,0,1.1,0,1.7-0.1c0.7,0,1.4-0.1,2.1-0.1c0.5,0,1-0.1,1.5-0.1c0.8-0.1,1.5-0.1,2.3-0.2c0.4,0,0.9-0.1,1.3-0.1
	c0.8-0.1,1.7-0.2,2.5-0.3c0.4,0,0.7-0.1,1.1-0.1c0.9-0.1,1.8-0.3,2.7-0.4c0.3,0,0.6-0.1,0.9-0.1c0.9-0.2,1.9-0.3,2.8-0.5
	c0.3,0,0.5-0.1,0.8-0.1c1-0.2,1.9-0.4,2.9-0.6c0.2-0.1,0.5-0.1,0.7-0.2c1-0.2,1.9-0.5,2.9-0.7C550.1,442.9,550.4,442.8,550.6,442.8z
	"/>
<path class="st0" d="M595,338c-0.8,3.7,1.5,7.3,5.2,8.1c0,0,0,0,0,0c0.3,0.1,0.7,0.1,1,0.1c3.4,0.2,6.4-2,7.1-5.3
	c1-4.5,1.7-9.1,2-13.7c3.5-50.6-34.7-94.5-85.3-98.1c-8.5-0.6-17.1,0-25.4,1.8c-3.7,0.8-6.1,4.4-5.3,8c0.8,3.7,4.4,6.1,8,5.3
	c0,0,0,0,0.1,0c27.7-5.8,56.3,3.7,75,24.9c13.9,15.7,20.8,36.3,19.3,57.2C596.4,330.3,595.8,334.2,595,338z"/>
<path class="st0" d="M566.9,182.7c52.5,18.4,90.1,64.9,97,120.1c0.5,3.7,3.9,6.4,7.6,5.9c3.7-0.5,6.4-3.9,5.9-7.6
	c-7.5-60.4-48.6-111.2-106-131.3c-3.6-1.2-7.4,0.6-8.7,4.2C561.4,177.6,563.3,181.5,566.9,182.7L566.9,182.7z"/>
<path class="st0" d="M671.7,329.2c-3.7-0.3-7,2.4-7.4,6.1c-6.1,61.2-49.8,112.2-109.4,127.5c-3.6,0.9-5.8,4.6-4.9,8.3
	c0.9,3.6,4.6,5.8,8.3,4.9l0,0c65.2-16.7,112.9-72.4,119.6-139.3C678.2,332.9,675.4,329.6,671.7,329.2
	C671.7,329.2,671.7,329.2,671.7,329.2z"/>
<path class="st0" d="M466,245.5c-2.8,2-5.6,4.1-8.2,6.4c-0.4,0.3-0.7,0.7-1,1c-0.8,0.7-1.6,1.4-2.3,2.2c-2.7,2.6-2.9,6.9-0.3,9.6
	c2.6,2.7,6.9,2.9,9.6,0.3c0.1-0.1,0.1-0.1,0.2-0.2c2.1-2.1,4.3-4,6.7-5.8c0.3-0.2,0.6-0.5,0.8-0.8c0.7-0.6,1.5-1.1,2.2-1.6
	c3.1-2.2,3.8-6.4,1.7-9.5C473.3,244.1,469.1,243.4,466,245.5L466,245.5z"/>
<path class="st0" d="M593.7,419.8c1.7,0.1,3.4-0.4,4.8-1.5c1.1-0.9,2.2-1.9,3.3-2.8c45.8-40.3,56.1-107.6,24.6-159.8
	c-2-3.2-6.1-4.2-9.4-2.3c-3.2,2-4.2,6.1-2.3,9.4l0,0c28.2,46.6,18.9,106.6-21.9,142.5c-1,0.9-2,1.7-3,2.5c-2.9,2.4-3.3,6.7-0.9,9.6
	C590.1,418.8,591.8,419.7,593.7,419.8L593.7,419.8z"/>
<path class="st0" d="M603.4,227.8c-47.5-43.2-119.8-43.8-168-1.4c-1,0.9-3.6,3.4-6.4,6c-2.1,3-1.4,7.1,1.6,9.2
	c2.4,1.7,5.7,1.6,7.9-0.3c2.6-2.2,5.2-4.3,7.5-6.2c43.4-36.6,107.3-35.2,148.9,3.5c3,2.2,7.3,1.5,9.5-1.5c0.1-0.1,0.1-0.2,0.2-0.3
	C606.5,233.8,605.9,230,603.4,227.8z"/>
<path class="st0" d="M417.5,374c-1.7,3.4-0.3,7.5,3.1,9.1c3.3,1.6,7.3,0.3,9-3c2.6-5,8.7-7,13.7-4.5c1.3,0.7,2.4,1.6,3.4,2.7
	c0.7,0.9,1.4,1.7,2.1,2.5c0.3,0.2,0.5,0.5,0.7,0.8c33.5,38.1,91.6,41.8,129.7,8.3c0,0,0,0,0,0c4.2-3.7,8.1-7.9,11.6-12.3
	c0.8-1.1,1.7-2.2,2.5-3.3c2.2-3,1.6-7.3-1.5-9.5c-3-2.2-7.3-1.6-9.5,1.5c0,0-0.1,0.1-0.1,0.1c-0.8,1.2-1.7,2.3-2.6,3.4
	c-0.2,0.3-0.5,0.5-0.7,0.8c-0.7,0.9-1.5,1.8-2.3,2.7c-0.1,0.1-0.2,0.2-0.3,0.3c-0.9,1-1.9,2-2.9,3l0,0c-1.1,1-2.2,2.1-3.3,3.1
	c-32.5,28.6-81.9,25.4-110.5-7.1c-0.3-0.3-0.5-0.5-0.8-0.8c-0.6-0.6-1.1-1.3-1.6-2c-8.2-10.3-23.2-11.9-33.5-3.7
	C421.2,368.3,419,371,417.5,374L417.5,374z"/>
<path class="st0" d="M400.9,244.8c0.1,0.1,0.2,0.3,0.3,0.4c2.7,2.8,7.1,2.8,9.8,0.2c2.6-2.5,2.8-6.7,0.5-9.5
	c-0.1-0.1-0.2-0.2-0.3-0.3c-1.7-2-2.6-4.5-2.5-7.1c0-2.4,1.8-5.7,3.1-7.2c3.4-4.2,10.3-10.2,16-14.7c32-25.3,73.1-36.1,113.4-29.9
	c3.7,0.6,7.2-2,7.8-5.7s-2-7.2-5.7-7.8l0,0c-1.5-0.2-3-0.4-4.6-0.6c-30.3-3.9-61.1,1-88.7,14.2c-18.1,8.6-38.2,23.8-48,35
	c-2.9,3.3-7,10.5-7.2,16.2C394.6,234,396.7,240.1,400.9,244.8z"/>
<path class="st0" d="M522.7,467.3c-4.8,0.1-9.6,0-14.3-0.3c-30.1-2-58.8-13.4-82.2-32.4l-0.2-0.2c-1.3-1-2.5-2.1-3.8-3.2
	c-0.4-0.4-0.8-0.7-1.2-1.1c-1-0.9-1.9-1.8-2.9-2.7c-3.9-3.7-7.6-7.6-11.1-11.7c-0.3-0.4-0.6-0.7-0.9-1c-2.4-2.9-6.7-3.3-9.6-0.9
	c-2.9,2.4-3.3,6.6-1,9.5c0.3,0.4,0.6,0.7,0.9,1.1c6.5,7.6,13.7,14.7,21.5,21c0.1,0,0.1,0.1,0.2,0.1c0.2,0.2,0.4,0.3,0.6,0.5l0.1,0.1
	l0.5,0.4c0.2,0.1,0.3,0.2,0.5,0.4c15.4,12.1,32.9,21.2,51.6,27c0.8,0.2,1.6,0.5,2.4,0.7c-24.9-7.2-47.7-20.3-66.3-38.3
	c27,26.2,62.4,41.9,99.9,44.4c5.2,0.4,10.4,0.5,15.6,0.3c0.7,0,1.3-0.1,1.9-0.3c-1.9,0.1-3.8,0.1-5.7,0.2h-0.3c0.7,0,1.3,0,2,0
	c1.3,0,2.7-0.1,4-0.1c3.6-1.2,5.5-5,4.3-8.6C528.5,469.1,525.7,467.2,522.7,467.3L522.7,467.3z M476.4,475.2
	c0.4,0.1,0.7,0.2,1.1,0.3c-0.7-0.2-1.3-0.4-2-0.6C475.8,475,476.1,475.1,476.4,475.2L476.4,475.2z M493.6,478.8
	c3.7,0.6,7.4,1,11.1,1.3C500.9,479.8,497.2,479.3,493.6,478.8z M504.8,480.1c1.7,0.1,3.4,0.2,5,0.3
	C508.2,480.4,506.5,480.3,504.8,480.1L504.8,480.1z M510.6,480.5c1.7,0.1,3.5,0.1,5.3,0.2C514.1,480.6,512.4,480.6,510.6,480.5
	L510.6,480.5z"/>
<path class="st0" d="M162.1,599.7c0-4.8,0.9-9.6,2.5-14.1c1.6-4.6,4.1-8.9,7.3-12.6c3.3-3.8,7.3-6.9,11.8-9c5-2.4,10.4-3.5,15.9-3.4
	c7,0,13.1,1.6,18.1,4.8c3.4,2.1,6.4,4.9,8.7,8.2c1.5,2.1,1,5.1-1.1,6.5c0,0-0.1,0.1-0.1,0.1l0,0c-2.1,1.4-4.9,0.8-6.4-1.2
	c-0.6-0.9-1.3-1.7-2-2.4c-1.6-1.6-3.4-3-5.4-4.1c-1.9-1-3.9-1.8-6-2.2c-2-0.4-4-0.7-6.1-0.7c-4-0.1-8,0.9-11.6,2.7
	c-3.3,1.8-6.2,4.2-8.5,7.1c-2.3,2.9-4.1,6.3-5.2,9.9c-1.1,3.6-1.7,7.3-1.7,11c0,4,0.7,8,2.1,11.8c1.3,3.6,3.2,7,5.7,9.9
	c2.4,2.8,5.3,5.2,8.7,6.9c3.4,1.7,7.1,2.6,10.9,2.6c2.1,0,4.3-0.3,6.4-0.8c2.2-0.5,4.3-1.4,6.3-2.5c2-1.2,3.9-2.6,5.6-4.3
	c0.8-0.8,1.5-1.7,2.2-2.6c1.4-2,4.1-2.6,6.2-1.4l0,0c2.3,1.2,3.2,4.1,1.9,6.4c-0.1,0.1-0.2,0.3-0.3,0.4c-0.8,1.2-1.7,2.2-2.7,3.3
	c-2.3,2.3-4.8,4.2-7.7,5.7c-2.9,1.6-5.9,2.7-9,3.5c-3,0.8-6.2,1.2-9.3,1.2c-5.2,0.1-10.3-1.2-14.9-3.6c-4.5-2.3-8.4-5.5-11.7-9.3
	C165.9,619.8,162.2,609.9,162.1,599.7L162.1,599.7z"/>
<path class="st0" d="M296.2,640.2c-5.2,0.1-10.4-1.1-15.1-3.4c-4.5-2.2-8.4-5.2-11.7-9c-3.3-3.8-5.8-8.1-7.5-12.8
	c-1.8-4.7-2.7-9.7-2.7-14.8c0-5.2,0.9-10.3,2.8-15.1c1.8-4.7,4.5-9,7.8-12.8c3.3-3.7,7.3-6.7,11.8-8.8c4.6-2.2,9.7-3.3,14.8-3.3
	c5.2-0.1,10.4,1.1,15.1,3.5c4.4,2.3,8.4,5.4,11.7,9.2c6.5,7.6,10.2,17.4,10.2,27.4c0,5.2-0.9,10.3-2.8,15.1c-1.8,4.7-4.4,9-7.8,12.7
	c-3.3,3.7-7.3,6.7-11.8,8.8C306.4,639.2,301.3,640.3,296.2,640.2z M269.2,600.3c0,3.9,0.7,7.9,1.9,11.6c1.2,3.6,3.1,7,5.5,9.9
	c2.3,2.9,5.2,5.2,8.5,6.9c3.4,1.7,7.2,2.6,11.1,2.5c3.9,0.1,7.8-0.9,11.3-2.7c3.3-1.8,6.2-4.2,8.5-7.1c2.4-3,4.2-6.3,5.3-9.9
	c1.2-3.6,1.8-7.4,1.8-11.2c0-3.9-0.6-7.9-1.9-11.6c-1.2-3.6-3.1-7-5.5-9.9c-2.4-2.8-5.3-5.1-8.5-6.8c-3.4-1.7-7.1-2.6-10.9-2.6
	c-3.9-0.1-7.8,0.9-11.3,2.7c-3.3,1.7-6.2,4.1-8.5,7c-2.4,2.9-4.2,6.3-5.4,9.9C269.9,592.6,269.2,596.4,269.2,600.3L269.2,600.3z"/>
<path class="st0" d="M379.4,579.5v55.1c0,2.8-2.2,5-5,5l0,0l0,0c-2.8,0-5-2.2-5-5l0,0v-68.6c0-2.9,2.3-5.2,5.2-5.2l0,0
	c1.6,0,3.1,0.7,4.1,2l47.3,59.4V566c0-2.8,2.2-5,5-5c0,0,0,0,0,0l0,0c2.8,0,5,2.2,5,5c0,0,0,0,0,0v68c0,3.1-2.5,5.7-5.7,5.7l0,0
	c-1.7,0-3.4-0.8-4.4-2.1L379.4,579.5z"/>
<path class="st0" d="M529.4,569.8h-22.7v64.9c0,2.8-2.2,5-5,5l0,0l0,0c-2.8,0-5-2.2-5-5l0,0v-64.9h-22.8c-2.5,0-4.4-2-4.4-4.4l0,0
	l0,0c0-2.5,2-4.4,4.4-4.4c0,0,0,0,0,0h55.5c2.5,0,4.4,2,4.4,4.4v0l0,0C533.9,567.8,531.9,569.8,529.4,569.8L529.4,569.8z"/>
<path class="st0" d="M567.4,634.7v-68.9c0-2.7,2.2-4.9,4.9-4.9h28.8c3.3,0,6.6,0.7,9.6,2.2c2.9,1.4,5.4,3.4,7.6,5.8
	c2.1,2.4,3.8,5.1,4.9,8.1c1.2,2.9,1.8,6,1.8,9.2c0,2.7-0.4,5.4-1.2,7.9c-0.7,2.5-1.9,4.8-3.3,6.9c-1.4,2.1-3.2,3.9-5.2,5.3
	c-2.1,1.5-4.4,2.6-6.8,3.2l14.4,22.8c1.4,2.2,0.7,5.2-1.5,6.6c-0.8,0.5-1.7,0.7-2.6,0.7l0,0c-1.6,0-3.2-0.8-4-2.2l-16.6-26.1h-20.9
	v23.3c0,2.8-2.2,5-5,5l0,0l0,0C569.6,639.7,567.4,637.4,567.4,634.7z M577.4,602.5h23.9c1.9,0,3.9-0.4,5.6-1.3
	c1.7-0.9,3.1-2.1,4.3-3.6c1.2-1.6,2.2-3.4,2.8-5.3c0.7-2,1-4.1,1-6.2c0-2.1-0.4-4.3-1.2-6.3c-0.7-1.9-1.8-3.7-3.1-5.2
	c-1.3-1.5-2.8-2.7-4.6-3.6c-1.7-0.8-3.6-1.3-5.5-1.3h-23.2L577.4,602.5z"/>
<path class="st0" d="M690.7,560.9L690.7,560.9c2.6,0,4.9,1.5,5.8,3.9l27.8,68.1c1,2.5-0.2,5.4-2.7,6.4c-0.6,0.2-1.2,0.4-1.9,0.4l0,0
	c-2,0-3.8-1.2-4.6-3.1l-8.1-20H674l-8,20c-0.7,1.9-2.6,3.1-4.6,3.1l0,0c-2.7,0-4.9-2.2-4.9-4.9c0-0.6,0.1-1.3,0.4-1.9l27.9-68.1
	C685.8,562.4,688.1,560.9,690.7,560.9z M704.9,608.8l-14.2-36.4L676,608.8H704.9z"/>
<path class="st0" d="M759.8,636.5v-70.7c0-2.7,2.2-4.9,4.9-4.9h28.8c3.3,0,6.6,0.7,9.6,2.2c2.9,1.4,5.4,3.4,7.5,5.8
	c2.1,2.4,3.8,5.1,4.9,8.1c1.2,2.9,1.8,6,1.8,9.2c0,2.7-0.4,5.4-1.2,7.9c-0.7,2.5-1.9,4.8-3.3,6.9c-1.4,2.1-3.2,3.9-5.2,5.3
	c-2.1,1.5-4.4,2.6-6.8,3.2l14.4,22.8c1.4,2.2,0.7,5.2-1.5,6.6c-0.8,0.5-1.7,0.7-2.6,0.7l0,0c-1.6,0-3.2-0.8-4-2.2l-16.6-26.1h-20.9
	v25.1c0,1.7-1.4,3.1-3.1,3.1l0,0h-3.7C761.2,639.7,759.8,638.3,759.8,636.5z M769.8,602.5h23.9c1.9,0,3.9-0.4,5.6-1.3
	c1.7-0.9,3.1-2.1,4.3-3.6c1.2-1.6,2.2-3.4,2.8-5.3c0.7-2,1-4.1,1-6.2c0-2.1-0.4-4.3-1.2-6.3c-0.7-1.9-1.8-3.7-3.1-5.2
	c-1.3-1.5-2.8-2.7-4.5-3.6c-1.7-0.8-3.6-1.3-5.5-1.3h-23.2L769.8,602.5z"/>
<path class="st0" d="M855.7,563.1l22.6,38.9l22.8-38.9c0.8-1.4,2.3-2.2,3.8-2.2h0.5c2.5,0,4.4,2,4.4,4.4c0,0.8-0.2,1.6-0.6,2.3
	l-25.9,43.3v23.7c0,2.8-2.2,5-5,5l0,0l0,0c-2.8,0-5-2.2-5-5l0,0v-24l-25.8-43.1c-1.3-2.1-0.6-4.8,1.5-6.1c0.7-0.4,1.5-0.6,2.3-0.6
	h0.6C853.5,560.9,854.9,561.7,855.7,563.1z"/>
</svg>
